<svg width="21" height="16" viewBox="0 0 21 16" fill="none" xmlns="http://www.w3.org/2000/svg">
<path d="M13.4304 10.7805C12.4232 10.7145 11.6314 9.88129 11.6314 8.8628C11.6314 8.8288 11.632 8.79481 11.634 8.76081V8.76548C11.632 8.73349 11.6307 8.69616 11.6307 8.65817C11.6307 7.64167 12.4239 6.81114 13.4251 6.75048H13.4304C14.4362 6.80514 15.2308 7.63367 15.2308 8.64817C15.2308 8.68949 15.2294 8.73015 15.2268 8.77081V8.76548C15.2288 8.79881 15.2301 8.83814 15.2301 8.87746C15.2301 9.89263 14.4362 10.7225 13.4351 10.7798H13.4297L13.4304 10.7805ZM6.78749 10.7805C5.78033 10.7145 4.98846 9.88129 4.98846 8.8628C4.98846 8.8288 4.98912 8.79481 4.99112 8.76081V8.76548C4.98912 8.73349 4.98779 8.69616 4.98779 8.65817C4.98779 7.64167 5.78099 6.81114 6.78216 6.75048H6.78749C7.79332 6.80514 8.58786 7.63367 8.58786 8.64817C8.58786 8.68949 8.58652 8.73015 8.58386 8.77081V8.76548C8.58586 8.79748 8.58719 8.8348 8.58719 8.8728C8.58719 9.88929 7.79399 10.7198 6.79282 10.7805H6.78749ZM17.0305 1.65C15.8553 1.09542 14.4902 0.656829 13.0611 0.402871L12.9618 0.388207C12.9585 0.387541 12.9545 0.386874 12.9505 0.386874C12.9271 0.386874 12.9071 0.399539 12.8965 0.418202C12.7405 0.692157 12.5712 1.0341 12.4186 1.38471L12.3899 1.4587C11.7033 1.34871 10.9115 1.28606 10.1049 1.28606C9.29841 1.28606 8.50654 1.34871 7.734 1.46936L7.81999 1.45803C7.64002 1.0381 7.46804 0.696823 7.27808 0.366211L7.3054 0.417536C7.29407 0.398206 7.27341 0.386207 7.25008 0.386207C7.24675 0.386207 7.24275 0.386208 7.23942 0.386874C5.711 0.655496 4.3459 1.09342 3.07011 1.69132L3.17076 1.64866C3.15943 1.65333 3.1501 1.66133 3.1441 1.67133C1.24175 4.36488 0.103271 7.71632 0.103271 11.3337C0.103271 11.9383 0.135266 12.5349 0.197256 13.1228L0.191257 13.0494C0.193256 13.0688 0.203255 13.0848 0.217252 13.0961C1.64368 14.1632 3.30207 15.0231 5.09177 15.5877L5.20909 15.6197C5.21442 15.6217 5.22109 15.6223 5.22775 15.6223C5.24908 15.6223 5.26774 15.6123 5.27908 15.597C5.63568 15.1171 5.97496 14.5732 6.26891 14.0026L6.30024 13.936C6.30424 13.928 6.3069 13.918 6.3069 13.9073C6.3069 13.88 6.28957 13.8573 6.26558 13.848H6.26491C5.65701 13.6133 5.1431 13.3634 4.65385 13.0768L4.70517 13.1048C4.68584 13.0934 4.67318 13.0728 4.67318 13.0494C4.67318 13.0288 4.68318 13.0101 4.69851 12.9988C4.80316 12.9201 4.90847 12.8388 5.00845 12.7562C5.01912 12.7475 5.03312 12.7422 5.04778 12.7422C5.05711 12.7422 5.06578 12.7442 5.07311 12.7475H5.07244C6.5442 13.4547 8.27191 13.868 10.0956 13.868C11.9193 13.868 13.6477 13.4547 15.1901 12.7168L15.1188 12.7475C15.1268 12.7435 15.1354 12.7415 15.1454 12.7415C15.1601 12.7415 15.1741 12.7468 15.1848 12.7555C15.2847 12.8381 15.3894 12.9208 15.4954 12.9988C15.5107 13.0108 15.5207 13.0294 15.5207 13.0501C15.5207 13.0734 15.508 13.0934 15.49 13.1048C15.0494 13.368 14.5355 13.6173 14.0003 13.8233L13.9303 13.8473C13.9063 13.8566 13.889 13.88 13.889 13.9066C13.889 13.9173 13.8916 13.9273 13.8963 13.936C14.2303 14.5758 14.5689 15.1184 14.9435 15.6337L14.9168 15.5957C14.9281 15.6117 14.9475 15.6223 14.9681 15.6223C14.9748 15.6223 14.9815 15.621 14.9875 15.6197C16.8971 15.0251 18.5582 14.1652 20.03 13.0654L19.9866 13.0968C20.0013 13.0861 20.0106 13.0694 20.0126 13.0508C20.0706 12.5282 20.1033 11.9216 20.1033 11.3077C20.1033 7.69833 18.9621 4.35555 17.0218 1.62L17.0564 1.67199C17.0511 1.66133 17.0418 1.65266 17.0311 1.648L17.0305 1.65Z" fill="white"/>
</svg>
