<svg width="10" height="10" viewBox="0 0 10 10" fill="none" xmlns="http://www.w3.org/2000/svg">
<path d="M3.66677 1.53333H2.70677C2.10938 1.53333 1.81046 1.53333 1.58229 1.64959C1.38158 1.75186 1.21852 1.91492 1.11626 2.11563C1 2.3438 1 2.64271 1 3.24011V7.29344C1 7.89083 1 8.18939 1.11626 8.41755C1.21852 8.61824 1.38158 8.7816 1.58229 8.88384C1.81024 9 2.10879 9 2.70502 9H6.76165C7.35787 9 7.656 9 7.88395 8.88384C8.08464 8.7816 8.24827 8.61808 8.35051 8.41739C8.46667 8.18944 8.46667 7.8912 8.46667 7.29499V6.33333M9 3.66667V1M9 1H6.33333M9 1L5.26667 4.73333" stroke="white" stroke-linecap="round" stroke-linejoin="round"/>
</svg>
