<svg width="21" height="20" viewBox="0 0 21 20" fill="none" xmlns="http://www.w3.org/2000/svg">
<path fill-rule="evenodd" clip-rule="evenodd" d="M10.1033 9.45109e-07C4.57899 9.45109e-07 0.103271 4.58952 0.103271 10.2538C0.103271 14.7847 2.96899 18.6264 6.94184 19.9828C7.44184 20.0766 7.6247 19.7599 7.6247 19.4886C7.6247 19.2452 7.61613 18.6 7.61041 17.7437C4.82899 18.364 4.24327 16.3698 4.24327 16.3698C3.78756 15.185 3.13184 14.8698 3.13184 14.8698C2.2247 14.2334 3.20041 14.2466 3.20041 14.2466C4.2047 14.3199 4.73327 15.3023 4.73327 15.3023C5.6247 16.8713 7.07327 16.4167 7.64327 16.1557C7.73327 15.4929 7.99184 15.0413 8.27756 14.7847C6.05756 14.5266 3.72327 13.6469 3.72327 9.71718C3.72327 8.59839 4.11327 7.68195 4.75184 6.9664C4.64899 6.70686 4.30613 5.66432 4.85184 4.25374C4.85184 4.25374 5.68899 3.97661 7.60041 5.30361C8.41618 5.07549 9.25777 4.95913 10.1033 4.95756C10.9533 4.96196 11.809 5.07487 12.6076 5.30361C14.5161 3.97661 15.3547 4.25227 15.3547 4.25227C15.9004 5.66432 15.5576 6.70686 15.4547 6.96493C16.0947 7.68342 16.4833 8.59839 16.4833 9.71718C16.4833 13.6557 14.1433 14.5237 11.9161 14.7759C12.2747 15.0926 12.5947 15.7187 12.5947 16.6762C12.5947 18.0458 12.5818 19.1514 12.5818 19.4886C12.5818 19.7628 12.7633 20.081 13.2704 19.9813C15.2595 19.3005 16.9897 17.9948 18.2159 16.2491C19.4422 14.5034 20.1024 12.406 20.1033 10.2538C20.1018 7.53305 19.0474 4.9243 17.1721 3.00137C15.2967 1.07844 12.7541 -0.00116605 10.1033 9.45109e-07Z" fill="white"/>
</svg>
