<svg width="16" height="16" viewBox="0 0 16 16" fill="none" xmlns="http://www.w3.org/2000/svg">
<path fill-rule="evenodd" clip-rule="evenodd" d="M16 16H12.8V10.4008C12.8 8.86478 12.1224 8.00781 10.9072 8.00781C9.5848 8.00781 8.8 8.90078 8.8 10.4008V16H5.6V5.6H8.8V6.76953C8.8 6.76953 9.80399 5.00781 12.0664 5.00781C14.3296 5.00781 16 6.38888 16 9.24648V16ZM1.9536 3.93672C0.874401 3.93672 0 3.05517 0 1.96797C0 0.881569 0.874401 0 1.9536 0C3.032 0 3.9064 0.881569 3.9064 1.96797C3.9072 3.05517 3.032 3.93672 1.9536 3.93672ZM0 16H4V5.6H0V16Z" fill="white"/>
</svg>
