<svg width="13" height="14" viewBox="0 0 13 14" fill="none" xmlns="http://www.w3.org/2000/svg">
<path d="M5.30062 8.19676L12.3055 1.19444M5.49974 8.51166L7.0881 11.6885C7.47197 12.4561 7.66387 12.84 7.90565 12.9429C8.11549 13.0322 8.35535 13.016 8.55132 12.8994C8.7771 12.7649 8.91575 12.3588 9.19313 11.5465L12.1942 2.75744C12.436 2.0497 12.5567 1.69583 12.4741 1.46174C12.4021 1.25809 12.2419 1.09789 12.0383 1.02595C11.8042 0.943239 11.4503 1.06407 10.7425 1.30574L1.95346 4.3069C1.1412 4.58425 0.735072 4.72293 0.600629 4.94872C0.483953 5.14465 0.467786 5.38451 0.55711 5.5943C0.660042 5.83608 1.04389 6.02805 1.81158 6.41185L4.98835 8.00028C5.11487 8.06354 5.17812 8.09513 5.23287 8.13736C5.28154 8.17489 5.32514 8.21848 5.36259 8.26708C5.4049 8.3219 5.43649 8.38515 5.49974 8.51166Z" stroke="white" stroke-linecap="round" stroke-linejoin="round"/>
</svg>
