<svg width="14" height="18" viewBox="0 0 14 18" fill="none" xmlns="http://www.w3.org/2000/svg">
<path d="M6.82259 1H4.15592C2.68317 1 1.48926 2.19391 1.48926 3.66667C1.48926 5.13942 2.68317 6.33333 4.15592 6.33333M6.82259 1V6.33333M6.82259 1H9.48926C10.9621 1 12.1559 2.19391 12.1559 3.66667C12.1559 5.13942 10.9621 6.33333 9.48926 6.33333M4.15592 6.33333H6.82259M4.15592 6.33333C2.68317 6.33333 1.48926 7.5272 1.48926 9C1.48926 10.4728 2.68317 11.6667 4.15592 11.6667M6.82259 6.33333H9.48926M6.82259 6.33333V11.6667M9.48926 6.33333C10.9621 6.33333 12.1559 7.5272 12.1559 9C12.1559 10.4728 10.9621 11.6667 9.48926 11.6667C8.01646 11.6667 6.82259 10.4728 6.82259 9C6.82259 7.5272 8.01646 6.33333 9.48926 6.33333ZM6.82259 11.6667H4.15592M6.82259 11.6667V14.3333C6.82259 15.8061 5.62872 17 4.15592 17C2.68317 17 1.48926 15.8061 1.48926 14.3333C1.48926 12.8605 2.68317 11.6667 4.15592 11.6667" stroke="white" stroke-width="2" stroke-linecap="round" stroke-linejoin="round"/>
</svg>
