<svg width="12" height="20" viewBox="0 0 12 20" fill="none" xmlns="http://www.w3.org/2000/svg">
<path d="M5.83548 14.7916C5.83548 14.7916 5.83548 7.88196 6.14223 7.88263C6.37943 7.88263 6.68797 16.7956 6.68797 16.7956C6.26351 16.7583 5.83548 15.3291 5.83548 14.7916ZM11.7815 7.96265C10.962 5.28443 9.16698 2.98166 6.69154 1.2044L6.68529 1.2004C6.38389 0.856285 6.10835 0.461487 5.8872 0.0453484L5.86579 0C5.86669 0.0133378 5.86669 0.0293431 5.86669 0.0453484C5.86669 0.422141 5.64108 0.75892 5.28528 0.984995L5.2826 0.986329C2.09556 3.00967 0.0677709 5.99133 0.000891239 9.32778V9.33644C-4.89855e-07 9.37779 0 9.42647 0 9.47516C0 12.7809 2.12677 15.7152 5.4128 17.5545L5.44757 17.5732L5.52515 17.6152C5.66843 18.4084 5.79089 19.2033 5.89255 20H6.42848C6.5765 19.0057 6.77625 18.1354 7.03753 17.2818L6.99651 17.4411C7.34963 17.2578 7.65817 17.0677 7.9462 16.8616L7.94352 16.8636C10.4413 15.1317 12 12.6642 12 9.92531C12 9.88463 12 9.84461 11.9991 9.80393V9.80994C11.9964 9.15572 11.9171 8.51617 11.7664 7.8953L11.7797 7.96132L11.7815 7.96265Z" fill="white"/>
</svg>
