<svg width="17" height="18" viewBox="0 0 17 18" fill="none" xmlns="http://www.w3.org/2000/svg">
<path d="M15.3254 9C15.3254 11.2938 14.1912 13.3225 12.4529 14.5561L5.85079 5.41455L5.74945 5.48773L5.85079 5.41454C5.6836 5.18306 5.38624 5.08575 5.11455 5.1736L5.14994 5.28306L5.11454 5.1736C4.84284 5.26146 4.65876 5.51445 4.65876 5.8V13.8V13.925H4.78376H5.85042H5.97542V13.8V7.83594L11.3039 15.2137C10.4533 15.5958 9.51001 15.8083 8.51709 15.8083C4.75695 15.8083 1.70876 12.7602 1.70876 9C1.70876 5.23986 4.75695 2.19167 8.51709 2.19167C12.2773 2.19167 15.3254 5.23986 15.3254 9ZM11.1838 5.14167H11.0588V5.26667V11.6667V11.7917H11.1838H12.2504H12.3754V11.6667V5.26667V5.14167H12.2504H11.1838ZM0.39209 9C0.39209 13.4873 4.02977 17.125 8.51709 17.125C13.0044 17.125 16.6421 13.4873 16.6421 9C16.6421 4.51268 13.0044 0.875 8.51709 0.875C4.02977 0.875 0.39209 4.51268 0.39209 9Z" fill="white" stroke="white" stroke-width="0.25"/>
</svg>
