<svg width="24" height="16" viewBox="0 0 24 16" fill="none" xmlns="http://www.w3.org/2000/svg">
<path d="M13.44 16H22.32C22.6034 16 22.8746 15.9005 23.12 15.76C23.3654 15.6195 23.6184 15.4433 23.76 15.2C23.9016 14.9567 24.0002 14.6808 24 14.3999C23.9998 14.119 23.9018 13.8432 23.76 13.6001L17.76 3.28C17.6184 3.0368 17.4454 2.86042 17.2 2.72C16.9546 2.57958 16.6034 2.48 16.32 2.48C16.0366 2.48 15.7654 2.57958 15.52 2.72C15.2746 2.86042 15.1016 3.0368 14.96 3.28L13.44 5.92L10.4 0.799811C10.2582 0.556627 10.0854 0.300393 9.84 0.16C9.59456 0.019607 9.32336 0 9.04 0C8.75664 0 8.48544 0.019607 8.24 0.16C7.99458 0.300393 7.74174 0.556627 7.6 0.799811L0.16 13.6001C0.0181588 13.8432 0.000123905 14.119 6.08644e-07 14.3999C-0.000122688 14.6808 0.0183723 14.9567 0.16 15.2C0.301628 15.4432 0.554596 15.6195 0.8 15.76C1.0454 15.9005 1.31662 16 1.6 16H7.2C9.41896 16 11.034 15.0046 12.16 13.12L14.88 8.4L16.32 5.92L20.72 13.44H14.88L13.44 16ZM7.12 13.44H3.2L9.04 3.36L12 8.4L10.0393 11.818C9.29152 13.0408 8.43904 13.44 7.12 13.44Z" fill="white"/>
</svg>
