<svg width="17" height="16" viewBox="0 0 17 16" fill="none" xmlns="http://www.w3.org/2000/svg">
<g clip-path="url(#clip0_1309_926)">
<path d="M16.0511 0.125H5.53516V5.39762H10.7095C10.8938 5.39762 11.0434 5.54717 11.0434 5.73151V10.8344H16.385V0.459498C16.3852 0.37084 16.3501 0.285758 16.2874 0.223009C16.2248 0.160261 16.1398 0.125 16.0511 0.125Z" fill="white"/>
<path opacity="0.405" d="M5.53477 0.125V5.39762H0.601528C0.533739 5.3975 0.472726 5.35648 0.447043 5.29374C0.42136 5.231 0.436087 5.15897 0.484332 5.11135L5.53477 0.125ZM11.3281 15.8263C11.28 15.8735 11.2084 15.8872 11.1463 15.8613C11.0842 15.8353 11.0437 15.7746 11.0436 15.7073V10.8344H16.3852L11.3281 15.8257V15.8263Z" fill="white"/>
<path opacity="0.405" d="M5.53467 5.39771H10.8769C10.9684 5.39771 11.0435 5.47217 11.0435 5.56434V10.8345H5.86917C5.68477 10.8345 5.53528 10.685 5.53528 10.5006V5.39771H5.53467Z" fill="white"/>
</g>
<defs>
<clipPath id="clip0_1309_926">
<rect width="16" height="16" fill="white" transform="translate(0.43457)"/>
</clipPath>
</defs>
</svg>
