<svg width="18" height="20" viewBox="0 0 18 20" fill="none" xmlns="http://www.w3.org/2000/svg">
<path d="M12.3928 7.27302C12.3883 7.77515 12.1856 8.25518 11.829 8.60865C11.4723 8.96211 10.9904 9.16042 10.4883 9.16042C9.98612 9.16042 9.50428 8.96211 9.14759 8.60865C8.79091 8.25518 8.58825 7.77515 8.5837 7.27302C8.5837 6.22085 9.43634 5.36821 10.4885 5.36821C10.9936 5.36829 11.478 5.56902 11.8352 5.92623C12.1923 6.28345 12.3929 6.7679 12.3928 7.27302Z" fill="white"/>
<path d="M5.38001 12.727C5.38001 12.2218 5.5807 11.7373 5.93793 11.38C6.29517 11.0228 6.77969 10.8221 7.28489 10.8221C7.7901 10.8221 8.27462 11.0228 8.63185 11.38C8.98909 11.7373 9.18978 12.2218 9.18978 12.727C9.18978 13.7792 8.33714 14.6318 7.28497 14.6318C6.2328 14.6318 5.38001 13.7792 5.38001 12.727Z" fill="white"/>
<path d="M14.4356 13.3807C13.6706 13.8754 12.8195 14.2218 11.9265 14.4018C12.1129 13.8631 12.2078 13.297 12.2072 12.727C12.2073 12.517 12.1947 12.3073 12.1694 12.0989C12.5538 11.965 12.9207 11.7857 13.2625 11.5648C14.089 11.0307 14.7437 10.2692 15.1478 9.37189C15.45 8.7009 15.6038 7.97257 15.5986 7.23668C15.5934 6.50079 15.4293 5.77471 15.1176 5.10808C14.8059 4.44145 14.3539 3.85 13.7925 3.37417C13.2311 2.89834 12.5736 2.54935 11.8649 2.35108C10.9171 2.08622 9.91304 2.10053 8.97321 2.3923C8.03337 2.68406 7.19771 3.24087 6.56655 3.99589C6.48583 4.0925 6.4087 4.19204 6.3353 4.29432C5.3661 4.40211 4.42273 4.67611 3.5466 5.10431C3.89767 3.98006 4.51658 2.95792 5.35011 2.12581C6.18364 1.2937 7.20683 0.676518 8.33167 0.327363C9.66924 -0.0881999 11.0984 -0.108546 12.4472 0.26877C13.7961 0.646576 15.0076 1.40516 15.9353 2.45373C16.8629 3.50231 17.4685 4.79744 17.679 6.18226C17.8891 7.56704 17.6948 8.98305 17.1194 10.26C16.5441 11.537 15.6121 12.6207 14.4356 13.3807ZM3.63332 6.43069L5.4161 6.64975C5.45807 6.30585 5.53519 5.96716 5.64625 5.63899C4.9395 5.80079 4.26098 6.06775 3.63332 6.43069Z" fill="white"/>
<path d="M3.32504 6.61928C4.09583 6.12094 4.95409 5.77319 5.85437 5.59445C5.64648 6.15969 5.54046 6.75732 5.54125 7.35958C5.54115 7.54289 5.55096 7.72607 5.57063 7.90832C5.19406 8.04145 4.83437 8.21822 4.49893 8.43503C3.67229 8.96919 3.01752 9.73073 2.61334 10.6281C2.20866 11.5253 2.07257 12.5207 2.21959 13.4937C2.36662 14.4666 2.79271 15.3766 3.4452 16.114C4.09769 16.8513 4.94783 17.3841 5.89578 17.6489C6.84373 17.9138 7.84824 17.8997 8.78823 17.608C9.72806 17.3161 10.5637 16.7591 11.1947 16.004C11.2755 15.9068 11.3528 15.8068 11.4266 15.7043C12.3966 15.5948 13.3404 15.3187 14.2164 14.8882C13.9315 15.8039 13.4683 16.6541 12.8535 17.39C11.9557 18.465 10.7665 19.2577 9.42884 19.6726C8.09127 20.0882 6.66214 20.1085 5.31329 19.7312C3.96466 19.3535 2.75358 18.5949 1.82523 17.5463C0.897458 16.4971 0.292255 15.2024 0.0822892 13.8177C-0.127844 12.433 0.066505 11.017 0.641967 9.74C1.2171 8.46306 2.14879 7.3794 3.32504 6.61928Z" fill="white"/>
</svg>
