<svg width="167" height="40" viewBox="0 0 167 40" fill="none" xmlns="http://www.w3.org/2000/svg">
<path d="M162.412 27.4357V21.8732H160.102V20.9834H166.067V21.8732H163.759V27.4357H162.412Z" fill="#00C1FF"/>
<path d="M11.1522 39.2459L0 9.10218H6.69676L15.3466 32.4259L23.7311 9.10218H28.2304L17.4228 39.2459H11.1522Z" fill="white"/>
<path d="M31.8775 9.10218H38.1523V27.5882C38.1523 30.9324 38.7184 33.1466 39.8547 34.2328C40.9868 35.3231 42.4574 35.8641 44.2642 35.8641C46.071 35.8641 47.458 35.3294 48.5108 34.2557C49.5635 33.18 50.0899 31.11 50.0899 28.0394V9.10218H55.548V27.6154C55.548 31.1058 55.1093 33.6061 54.2341 35.1205C53.3589 36.6349 52.091 37.8255 50.4366 38.6966C48.7781 39.5655 46.681 40 44.143 40C41.6051 40 39.4996 39.5948 37.7053 38.7885C35.9131 37.9822 34.4927 36.7769 33.4483 35.1811C32.4018 33.5852 31.8775 31.0431 31.8775 27.5527V9.10218Z" fill="white"/>
<path d="M68.1645 22.9907C68.1645 22.8591 68.2647 22.7275 68.3963 22.7275C68.5279 22.7275 68.6303 22.8612 68.6303 22.9907C68.6303 23.1202 68.5321 23.2226 68.3963 23.2226C68.2606 23.2226 68.1645 23.1244 68.1645 22.9907Z" fill="#00C1FF"/>
<path d="M98.304 9.22124C96.94 9.05413 93.8423 9.38626 91.1833 9.98366C92.8481 9.15231 93.3139 9.0228 93.9113 8.65308C94.0763 8.5549 94.1766 8.32305 94.1766 7.95541C94.1766 7.55645 93.8131 7.4917 93.3807 7.55645C92.9441 7.58987 92.0146 7.92199 90.8804 8.32305C88.6182 9.25466 85.3617 10.7837 81.5016 13.3822C78.1073 15.7091 75.8492 17.7039 73.3844 20.198C72.7432 20.8539 72.0037 21.6727 71.2329 22.5792C71.0617 22.2785 70.9572 22.2095 70.6564 22.2931C71.5212 20.3296 71.6194 20.2293 72.0873 19.1014C72.2857 18.5666 72.1854 18.1656 71.9891 17.9379C71.7196 17.4679 71.3541 17.8021 71.1222 17.9713C70.7567 18.4016 70.6543 18.504 69.8564 19.4982C70.8528 16.1707 71.3875 15.9055 72.317 14.0088C72.4194 13.777 72.4194 13.3822 72.2836 13.0793C72.1854 12.8453 72.0518 12.7117 71.8533 12.814C71.4857 12.979 71.3875 13.1775 70.6857 14.0088C71.682 12.1122 73.0481 9.88548 73.1839 9.52203C73.3489 9.12098 73.5787 9.05413 73.1505 8.45673C72.8163 7.95541 72.5176 8.32305 72.2836 8.55491C72.0852 8.65308 71.682 9.12098 70.9885 9.95233C72.4507 7.22224 73.8168 5.96059 74.0821 5.49478C74.4142 4.96214 74.4476 4.82845 74.1844 4.23105C73.9484 3.6984 73.4826 3.93026 73.2528 4.23105C72.2189 5.22742 72.2857 4.99765 70.5562 6.99247C71.4544 4.62792 73.021 2.83363 73.5808 1.9041C73.8189 1.53856 73.8481 1.40488 73.6142 0.504594C73.4826 0.107718 73.1526 -0.0301438 72.8184 0.00536618C72.3191 0.107718 71.8554 0.375087 70.9217 1.16884C69.0251 2.86705 66.4997 5.33186 64.4338 9.75389C62.4369 13.9106 62.0066 17.8376 62.0066 20.5301C62.0066 24.7161 63.1012 28.3381 64.1143 30.617C64.1143 30.5314 64.1038 30.4625 64.0996 30.3747C64.0349 29.2447 64.2333 27.9475 64.4338 27.3167C64.8558 25.6519 65.4051 24.7579 65.8689 24.0351L65.0626 22.9281L66.13 23.2581L65.4991 21.8607C65.4991 21.8607 66.3012 21.9547 66.9216 22.7798C67.3101 22.4288 68.0955 22.1197 68.858 22.7275C69.3593 22.6941 69.658 22.7944 69.9233 22.926C70.4872 23.256 70.4204 23.8555 70.387 23.9892C70.0883 23.7218 69.2548 23.1892 68.3587 23.8868L70.0235 24.455L67.9263 24.6179V26.784L65.4302 29.0065V29.8588L67.1389 28.3548V29.1423L64.131 31.8432V32.6662L67.9284 29.253V29.2614L68.8851 28.405L68.8935 28.4133C69.4595 27.9454 69.6914 27.7136 70.0256 27.5465C70.4225 27.2791 70.4914 27.5757 70.5562 28.0102C70.6564 28.3736 71.0867 28.7454 71.9891 27.912C74.6503 25.514 77.443 24.219 80.4008 22.7902C78.8028 23.8848 75.8472 25.514 74.8445 26.6148C74.4121 27.112 74.8445 28.3423 75.5422 27.8117C76.808 26.9783 78.4707 26.8488 79.3021 26.878C79.701 26.878 80.1355 26.6128 80.3674 26.2785C80.5992 25.9798 80.5992 25.6456 80.0686 25.6122C82.7966 24.785 83.4964 24.5511 85.7565 24.3506C86.3539 24.3171 86.7215 23.985 86.8197 23.4837C86.9221 23.0221 86.686 22.8863 86.1241 22.8215C85.4578 22.7234 84.2923 22.9239 83.1267 23.1202C85.7565 21.9923 88.9482 21.3907 91.4778 20.6596C92.2757 20.4278 92.3781 20.1938 92.4115 19.728C92.5076 19.2288 92.1086 19.2288 91.2104 19.2288C89.3827 19.327 86.6547 19.4941 82.4979 20.693C86.4228 18.7275 88.6161 17.7958 92.1796 16.9018C93.1426 16.6324 93.3097 16.4005 93.3765 15.9013C93.5415 15.3352 93.0736 15.3352 92.7436 15.4021C92.2423 15.4355 91.0475 15.4021 88.614 16.1331C90.9827 15.1054 93.5708 13.9044 95.434 13.307C95.8372 13.1712 96.069 12.908 96.069 12.4735C96.069 12.1435 95.9708 12.108 95.5719 12.108C94.7719 12.108 93.4747 12.3733 91.9123 12.8412C95.104 11.4793 96.069 11.0114 98.1975 10.6458C98.8994 10.4808 99.031 10.2489 99.0623 9.81655C99.1646 9.21915 98.7657 9.25048 98.2999 9.21915M66.6292 20.0601C66.5958 19.7948 66.4642 19.6319 66.2323 19.4961C66.6981 18.3661 67.1597 17.4658 68.0621 16.2689C67.2308 17.9358 66.8318 19.329 66.6292 20.0601ZM63.7362 19.1306C64.3691 12.3419 67.4626 7.35383 69.5598 5.06031C66.531 9.51994 64.8015 15.7049 63.7362 19.1306ZM75.0471 21.0565C79.0075 17.3008 84.428 13.3091 91.2814 11.6129C85.4933 13.6725 77.5433 19.0993 75.0471 21.0565Z" fill="#00C1FF"/>
<path d="M107.048 15.6485L104.662 9.19617H106.093L107.944 14.1885L109.742 9.19617H110.703L108.389 15.6485H107.048Z" fill="#00C1FF"/>
<path d="M112.828 12.1247H113.135C113.692 12.1247 114.07 12.0056 114.281 11.7654C114.492 11.5231 114.601 11.2495 114.601 10.9445C114.601 10.6792 114.515 10.4704 114.344 10.3137C114.171 10.1591 113.82 10.0797 113.296 10.0797H112.828V12.1247ZM111.562 15.6485V9.19617H113.976C114.469 9.19617 114.848 9.25675 115.104 9.37999C115.366 9.50532 115.57 9.69122 115.719 9.94397C115.867 10.1946 115.942 10.4787 115.942 10.7962C115.942 11.1743 115.833 11.5315 115.614 11.8678C115.397 12.2041 115.086 12.4589 114.691 12.6365L116.803 15.6506H115.167L113.563 13.0124H112.826V15.6506H111.56L111.562 15.6485Z" fill="#00C1FF"/>
<path d="M119.017 9.19617H117.674V15.6485H119.017V9.19617Z" fill="#00C1FF"/>
<path d="M119.533 16.7828L119.522 15.824C119.869 15.9598 120.235 16.0287 120.606 16.0287C120.763 16.0287 120.901 15.9995 121.022 15.941C121.141 15.8825 121.235 15.7864 121.308 15.659C121.379 15.5274 121.415 15.2579 121.415 14.8443V9.19408H122.758V14.7023C122.758 15.306 122.689 15.7467 122.553 16.0224C122.411 16.3002 122.194 16.5217 121.893 16.6867C121.594 16.8559 121.198 16.9373 120.698 16.9373C120.329 16.9373 119.944 16.8872 119.535 16.7807" fill="#00C1FF"/>
<path d="M124.385 15.6485V9.19617H128.521V10.0839H125.728V11.8824H128.036V12.7701H125.728V14.7336H128.724V15.6485H124.385Z" fill="#00C1FF"/>
<path d="M105.306 20.9834H106.651V24.9417C106.651 25.6561 106.77 26.1302 107.014 26.3642C107.257 26.5981 107.568 26.7109 107.959 26.7109C108.349 26.7109 108.642 26.596 108.865 26.3663C109.091 26.1386 109.206 25.6937 109.206 25.0357V20.9834H110.373V24.9459C110.373 25.6916 110.279 26.2284 110.091 26.5522C109.903 26.878 109.636 27.1329 109.281 27.3188C108.926 27.5026 108.475 27.5966 107.931 27.5966C107.388 27.5966 106.937 27.5109 106.555 27.3355C106.173 27.1642 105.868 26.9073 105.644 26.5647C105.421 26.2221 105.308 25.6811 105.308 24.9333V20.9834H105.306Z" fill="#00C1FF"/>
<path d="M111.971 27.4357V20.9834H113.158L116.138 25.3908V20.9834H117.218V27.4357H116.011L113.049 23.0283V27.4357H111.971Z" fill="#00C1FF"/>
<path d="M120.316 20.9834H118.977V27.4337H120.316V20.9834Z" fill="#00C1FF"/>
<path d="M123.575 27.4357L121.189 20.9834H122.622L124.475 25.9757L126.269 20.9834H127.23L124.918 27.4357H123.575Z" fill="#00C1FF"/>
<path d="M127.944 27.4357V20.9834H132.08V21.8732H129.29V23.6696H131.596V24.5594H129.29V26.5208H132.285V27.4357H127.944Z" fill="#00C1FF"/>
<path d="M134.664 23.914H134.973C135.527 23.914 135.909 23.7928 136.12 23.5526C136.333 23.3124 136.44 23.0388 136.44 22.7338C136.44 22.4685 136.354 22.2597 136.181 22.103C136.009 21.9463 135.658 21.869 135.132 21.869H134.664V23.914ZM133.403 27.4357V20.9855H135.815C136.308 20.9855 136.686 21.046 136.945 21.1693C137.204 21.2925 137.407 21.4805 137.557 21.7312C137.708 21.9839 137.783 22.268 137.783 22.5834C137.783 22.9636 137.674 23.3187 137.455 23.655C137.236 23.9913 136.928 24.2482 136.529 24.4237L138.641 27.4357H137.006L135.404 24.7997H134.664V27.4357H133.403Z" fill="#00C1FF"/>
<path d="M139.044 27.3814V26.2723C139.55 26.4832 139.924 26.6086 140.177 26.6483C140.425 26.6921 140.653 26.7109 140.862 26.7109C141.24 26.7109 141.522 26.6274 141.703 26.4582C141.891 26.289 141.983 26.0885 141.983 25.8524C141.983 25.6728 141.933 25.5099 141.829 25.3636C141.726 25.2216 141.472 25.0357 141.066 24.808L140.63 24.5678C140.009 24.2211 139.59 23.9015 139.368 23.609C139.145 23.3166 139.032 22.974 139.032 22.5876C139.032 22.103 139.22 21.6873 139.59 21.3385C139.963 20.9917 140.496 20.8205 141.194 20.8205C141.712 20.8205 142.297 20.8915 142.948 21.0419V22.0758C142.282 21.8273 141.752 21.7061 141.359 21.7061C141.033 21.7061 140.786 21.775 140.617 21.9171C140.446 22.0591 140.365 22.2283 140.365 22.4247C140.365 22.5751 140.417 22.715 140.519 22.8466C140.621 22.9782 140.872 23.1578 141.277 23.3834L141.745 23.6425C142.458 24.0393 142.913 24.3861 143.109 24.6806C143.301 24.9772 143.4 25.3093 143.4 25.6791C143.4 26.2075 143.197 26.6587 142.794 27.0326C142.391 27.4086 141.749 27.5945 140.868 27.5945C140.348 27.5945 139.738 27.5214 139.044 27.3773" fill="#00C1FF"/>
<path d="M145.852 20.9834H144.509V27.4337H145.852V20.9834Z" fill="#00C1FF"/>
<path d="M148.643 27.4357V21.8732H146.332V20.9834H152.298V21.8732H149.984V27.4357H148.643Z" fill="#00C1FF"/>
<path d="M152.791 27.4357V20.9834H156.925V21.8732H154.132V23.6696H156.442V24.5594H154.132V26.5208H157.129V27.4357H152.791Z" fill="#00C1FF"/>
<path d="M159.563 20.9834H158.218V27.4337H159.563V20.9834Z" fill="#00C1FF"/>
<path d="M106.632 36.6412H108.637L107.637 34.0719L106.632 36.6412ZM104.652 39.225L107.163 32.7706H108.51L111.023 39.225H109.642L108.972 37.5018H106.3L105.632 39.225H104.652Z" fill="#00C1FF"/>
<path d="M111.858 39.225V32.7706H113.634L115.194 37.3096L116.796 32.7706H118.357V39.225H117.118V34.3539L115.543 38.7927H114.459L112.915 34.2871V39.225H111.858Z" fill="#00C1FF"/>
<path d="M119.681 39.1666V38.0595C120.184 38.2705 120.563 38.3979 120.809 38.4417C121.06 38.4814 121.287 38.5023 121.498 38.5023C121.872 38.5023 122.156 38.4167 122.342 38.2496C122.53 38.0825 122.622 37.8798 122.622 37.6438C122.622 37.4621 122.572 37.3012 122.465 37.155C122.361 37.013 122.108 36.8292 121.703 36.5994L121.266 36.3613C120.644 36.0145 120.224 35.6949 120.003 35.4004C119.781 35.108 119.666 34.7675 119.666 34.379C119.666 33.8944 119.85 33.4787 120.224 33.132C120.596 32.7852 121.131 32.6118 121.824 32.6118C122.346 32.6118 122.933 32.685 123.583 32.8333V33.8693C122.919 33.6207 122.386 33.4954 121.993 33.4954C121.672 33.4954 121.425 33.5685 121.254 33.7085C121.083 33.8526 120.999 34.0197 120.999 34.2181C120.999 34.3706 121.051 34.5106 121.154 34.6401C121.256 34.7717 121.509 34.9492 121.912 35.1769L122.38 35.4338C123.092 35.8328 123.547 36.1796 123.742 36.4762C123.936 36.7707 124.034 37.1028 124.034 37.4725C124.034 37.9989 123.832 38.4522 123.426 38.8261C123.023 39.1979 122.384 39.388 121.502 39.388C120.98 39.388 120.372 39.3149 119.679 39.1687" fill="#00C1FF"/>
<path d="M126.292 39.225V33.6604H123.982V32.7706H129.946V33.6604H127.635V39.225H126.292Z" fill="#00C1FF"/>
<path d="M130.478 39.225V32.7706H134.612V33.6604H131.819V35.4568H134.127V36.3467H131.819V38.3101H134.817V39.225H130.478Z" fill="#00C1FF"/>
<path d="M137.415 35.7012C137.971 35.7012 138.353 35.5801 138.566 35.3378C138.777 35.0955 138.879 34.8218 138.879 34.5168C138.879 34.2537 138.794 34.0448 138.625 33.8881C138.451 33.7335 138.1 33.6563 137.574 33.6563H137.106V35.7012H137.415ZM135.842 39.223V32.7685H138.255C138.75 32.7685 139.128 32.8312 139.387 32.9523C139.644 33.0777 139.849 33.2636 139.997 33.5163C140.147 33.767 140.225 34.051 140.225 34.3685C140.225 34.7466 140.114 35.1017 139.897 35.4401C139.679 35.7764 139.372 36.0312 138.971 36.2088L141.085 39.2209H139.45L137.845 36.5827H137.108V39.2209H135.842V39.223Z" fill="#00C1FF"/>
<path d="M144.118 38.3101C144.642 38.3101 145.041 38.2266 145.321 38.0658C145.595 37.9028 145.818 37.6271 145.979 37.2386C146.14 36.8521 146.219 36.4177 146.219 35.9414C146.219 35.4652 146.142 35.0808 145.983 34.7278C145.827 34.3769 145.61 34.1116 145.334 33.9299C145.056 33.7461 144.584 33.6563 143.924 33.6563H143.116V38.3101H144.118ZM141.772 32.7706H144.553C145.294 32.7706 145.875 32.8897 146.291 33.1299C146.702 33.3701 147.034 33.7189 147.279 34.1826C147.523 34.6464 147.646 35.2082 147.646 35.8641C147.646 36.52 147.529 37.0819 147.293 37.5895C147.061 38.0929 146.721 38.494 146.274 38.7864C145.823 39.0809 145.211 39.2271 144.434 39.2271H141.772V32.7706Z" fill="#00C1FF"/>
<path d="M149.789 36.6412H151.79L150.79 34.0719L149.789 36.6412ZM147.807 39.225L150.318 32.7706H151.663L154.174 39.225H152.795L152.123 37.5018H149.453L148.78 39.225H147.807Z" fill="#00C1FF"/>
<path d="M154.832 39.225V32.7706H156.609L158.165 37.3096L159.768 32.7706H161.33V39.225H160.091V34.3539L158.514 38.7927H157.436L155.889 34.2871V39.225H154.832Z" fill="#00C1FF"/>
<path d="M83.0327 30.31C82.6692 29.3136 81.7042 28.6473 80.3736 28.7475C79.6446 27.3501 78.477 28.0102 78.1449 28.4175C78.5104 28.7475 78.807 28.8833 79.2415 28.9481V29.2468C78.4122 29.2154 78.1449 28.8833 77.5809 28.2796C77.3469 30.2765 79.676 30.9805 80.407 29.3491C81.5058 29.3157 82.1721 29.8128 82.404 30.5126C82.6316 31.2102 82.404 31.9789 82.0384 32.3424C81.3721 33.1403 80.3068 33.1403 79.3438 32.6411C78.7485 32.3424 78.1114 31.7095 77.5474 31.1121C76.7182 30.1805 76.2482 29.7794 75.6153 29.4473C75.2685 29.2823 74.9218 29.1987 74.5834 29.1486C74.385 29.1131 74.1865 29.088 73.9881 29.0817C73.7959 29.0817 73.6205 29.1026 73.4575 29.134C72.035 29.2906 70.5917 29.9904 68.8642 30.147H67.9326C67.354 30.6504 64.5759 33.1403 64.5759 33.1403C64.7075 34.1722 64.7388 34.6714 64.7388 35.6009C64.7388 36.3696 64.7075 36.7373 64.7075 37.0694C64.674 37.3994 64.6072 37.6668 64.509 37.93C64.4422 38.166 64.2417 38.3624 63.9095 38.3979C63.6108 38.4605 62.909 37.93 62.6792 38.2642C62.4808 38.5316 62.7126 39.1624 62.909 39.3274H64.8746C65.1085 38.8323 65.2088 38.5316 65.3404 38.2329C65.5096 37.9989 65.6433 37.6292 65.7728 37.3994C65.9085 37.1696 66.0401 36.8333 66.1091 36.6036C66.1404 36.3696 66.2407 36.1336 66.2741 35.9728C66.4099 35.6009 66.6041 35.2667 66.7399 35.0746C66.7712 35.0119 66.813 34.9618 66.8464 34.9095C66.9342 35.0391 67.0177 35.1665 67.072 35.2688C67.5399 36.002 67.9368 36.5702 68.6031 36.8354C68.8684 36.967 69.0355 37.0715 69.1337 37.1717C69.2319 37.2678 69.2319 37.5707 69.2026 37.7671C69.2026 38.0344 69.1003 38.2684 68.8371 38.3665C68.4026 38.5336 67.707 37.9028 67.4376 38.237C67.2057 38.5023 67.4731 39.0015 67.707 39.3316H69.4992C69.9358 38.6339 70.1008 37.671 70.1008 36.8709C70.1008 36.0709 70.1008 35.8391 69.5995 35.6406C69.4324 35.5383 69.2674 35.1393 69.1337 34.709C69.1337 34.6589 69.1358 34.5753 69.1379 34.4792C69.9922 34.1952 70.9384 33.6959 71.9745 32.9356C71.9807 33.0714 71.9849 33.2092 71.9975 33.3471C72.1625 34.4792 72.2941 35.509 73.1609 36.3404C73.3907 36.5743 73.5891 36.8083 73.6226 36.942C73.6226 37.0401 73.491 37.4036 73.3907 37.5728C73.1943 38.0052 72.7599 38.3686 72.4277 38.4041C71.9975 38.4668 71.4961 37.9049 71.1598 38.2391C70.8632 38.5357 71.2622 39.1686 71.4606 39.3337H73.2883C73.8878 38.2391 74.7192 37.3075 75.02 36.708C75.185 36.2756 75.185 36.1085 74.8508 35.979C74.2534 35.6427 74.3202 34.9116 74.4852 34.0824C74.5291 33.9445 74.598 33.8066 74.6711 33.6709C75.1223 34.9304 75.7135 36.1085 77.0816 36.4741C77.3114 36.5054 77.6456 36.6746 77.6811 36.7435C77.6811 36.8083 77.6811 37.0757 77.6456 37.272C77.5809 37.6731 77.3469 38.1389 77.0461 38.3707C76.7182 38.6381 75.8848 37.7712 75.6153 38.2725C75.4189 38.6736 75.7532 39.2062 75.9182 39.3358H77.6811C78.1762 38.2412 78.6127 37.2741 78.7464 36.5785C78.878 35.7451 78.878 35.4464 78.2451 35.3148C77.913 35.2772 77.6456 35.1456 77.5474 34.6819C77.3135 33.8505 77.3469 32.4531 76.7182 31.4901C77.4138 32.3194 78.1762 32.9189 78.8425 33.2531C80.3736 34.0845 81.9716 33.7816 82.7319 32.687C83.2311 31.8536 83.2311 30.922 83.0327 30.3246" fill="#00C1FF"/>
</svg>
