<svg width="520" height="589" viewBox="0 0 520 589" fill="none" xmlns="http://www.w3.org/2000/svg">
<g clip-path="url(#clip0_140_2257)">
<path d="M254.84 474.927C206.776 474.927 160.198 458.186 123.044 427.558C85.8897 396.929 60.4576 354.307 51.0808 306.954C41.704 259.601 48.9627 210.447 71.6202 167.868C94.2776 125.288 130.932 91.9172 175.338 73.4411C219.743 54.965 269.153 52.5268 315.148 66.542C361.143 80.5571 400.877 110.158 427.58 150.302C454.283 190.446 466.303 238.648 461.592 286.697C456.881 334.745 435.73 379.665 401.743 413.805C382.496 433.244 359.602 448.655 334.386 459.147C309.17 469.638 282.133 475.002 254.84 474.927ZM254.84 59.1597C141.166 59.1597 48.6855 152.056 48.6855 266.241C48.6855 380.427 141.166 473.322 254.84 473.322C368.514 473.322 460.994 380.427 460.994 266.241C460.994 152.056 368.514 59.1597 254.84 59.1597Z" stroke="#08415C" stroke-width="2"/>
<path d="M321.887 546.971V380.095H198.242V546.971H321.887Z" fill="#08415C"/>
<path d="M338.129 375H182C179.239 375 177 377.239 177 380V436.241C177 439.002 179.239 441.241 182 441.241H338.129C340.89 441.241 343.129 439.002 343.129 436.241V380C343.129 377.239 340.89 375 338.129 375Z" fill="#075374"/>
<path d="M338.129 448.884H182C179.239 448.884 177 451.122 177 453.884V510.125C177 512.886 179.239 515.125 182 515.125H338.129C340.89 515.125 343.129 512.886 343.129 510.125V453.884C343.129 451.122 340.89 448.884 338.129 448.884Z" fill="#075374"/>
<path d="M338.129 522.768H182C179.239 522.768 177 525.006 177 527.768V584.009C177 586.77 179.239 589.009 182 589.009H338.129C340.89 589.009 343.129 586.77 343.129 584.009V527.768C343.129 525.006 340.89 522.768 338.129 522.768Z" fill="#075374"/>
<path d="M343.129 403.086H177V413.277H343.129V403.086Z" fill="#00BCFF"/>
<path d="M343.129 476.97H177V487.161H343.129V476.97Z" fill="#00BCFF"/>
<path d="M343.129 550.854H177V561.045H343.129V550.854Z" fill="#00BCFF"/>
<path d="M307.364 388.376C309.465 388.376 311.169 386.665 311.169 384.554C311.169 382.443 309.465 380.732 307.364 380.732C305.263 380.732 303.56 382.443 303.56 384.554C303.56 386.665 305.263 388.376 307.364 388.376Z" fill="white"/>
<path d="M320.68 388.376C322.781 388.376 324.484 386.665 324.484 384.554C324.484 382.443 322.781 380.732 320.68 380.732C318.579 380.732 316.875 382.443 316.875 384.554C316.875 386.665 318.579 388.376 320.68 388.376Z" fill="white"/>
<path d="M333.996 388.376C336.097 388.376 337.8 386.665 337.8 384.554C337.8 382.443 336.097 380.732 333.996 380.732C331.894 380.732 330.191 382.443 330.191 384.554C330.191 386.665 331.894 388.376 333.996 388.376Z" fill="white"/>
<path d="M307.364 460.986C309.465 460.986 311.169 459.275 311.169 457.164C311.169 455.053 309.465 453.342 307.364 453.342C305.263 453.342 303.56 455.053 303.56 457.164C303.56 459.275 305.263 460.986 307.364 460.986Z" fill="white"/>
<path d="M320.68 460.986C322.781 460.986 324.484 459.275 324.484 457.164C324.484 455.053 322.781 453.342 320.68 453.342C318.579 453.342 316.875 455.053 316.875 457.164C316.875 459.275 318.579 460.986 320.68 460.986Z" fill="white"/>
<path d="M333.996 460.986C336.097 460.986 337.8 459.275 337.8 457.164C337.8 455.053 336.097 453.342 333.996 453.342C331.894 453.342 330.191 455.053 330.191 457.164C330.191 459.275 331.894 460.986 333.996 460.986Z" fill="white"/>
<path d="M307.364 533.595C309.465 533.595 311.169 531.885 311.169 529.774C311.169 527.663 309.465 525.952 307.364 525.952C305.263 525.952 303.56 527.663 303.56 529.774C303.56 531.885 305.263 533.595 307.364 533.595Z" fill="white"/>
<path d="M320.68 533.595C322.781 533.595 324.484 531.885 324.484 529.774C324.484 527.663 322.781 525.952 320.68 525.952C318.579 525.952 316.875 527.663 316.875 529.774C316.875 531.885 318.579 533.595 320.68 533.595Z" fill="white"/>
<path d="M333.996 533.595C336.097 533.595 337.8 531.885 337.8 529.774C337.8 527.663 336.097 525.952 333.996 525.952C331.894 525.952 330.191 527.663 330.191 529.774C330.191 531.885 331.894 533.595 333.996 533.595Z" fill="white"/>
<rect y="175" width="93" height="194" rx="10" fill="#08415C"/>
<path d="M60.2256 275.545H29.1182C28.5951 275.545 28.171 275.969 28.171 276.492C28.171 277.015 28.5951 277.439 29.1182 277.439H60.2256C60.7487 277.439 61.1728 277.015 61.1728 276.492C61.1728 275.969 60.7487 275.545 60.2256 275.545Z" fill="white"/>
<path d="M78.2551 282.5H29.0851C28.562 282.5 28.1379 282.924 28.1379 283.447C28.1379 283.97 28.562 284.394 29.0851 284.394H78.2551C78.7782 284.394 79.2022 283.97 79.2022 283.447C79.2022 282.924 78.7782 282.5 78.2551 282.5Z" fill="#00BCFF"/>
<path d="M67.2643 289.053H29.0851C28.562 289.053 28.1379 289.477 28.1379 290C28.1379 290.523 28.562 290.947 29.0851 290.947H67.2643C67.7874 290.947 68.2115 290.523 68.2115 290C68.2115 289.477 67.7874 289.053 67.2643 289.053Z" fill="white"/>
<path d="M50.7635 295.606H29.0851C28.562 295.606 28.1379 296.03 28.1379 296.553C28.1379 297.076 28.562 297.5 29.0851 297.5H50.7635C51.2866 297.5 51.7106 297.076 51.7106 296.553C51.7106 296.03 51.2866 295.606 50.7635 295.606Z" fill="white"/>
<path d="M62.5498 302.159H29.0851C28.562 302.159 28.1379 302.583 28.1379 303.106C28.1379 303.629 28.562 304.053 29.0851 304.053H62.5498C63.0729 304.053 63.497 303.629 63.497 303.106C63.497 302.583 63.0729 302.159 62.5498 302.159Z" fill="white"/>
<path d="M13.2048 276.894C13.2048 277.936 14.0491 278.789 15.0907 278.789C16.1322 278.789 16.9765 277.936 16.9765 276.894C16.9765 275.853 16.1322 275 15.0907 275C14.0491 275 13.2048 275.853 13.2048 276.894Z" fill="white"/>
<path d="M13.2048 283.447C13.2048 284.489 14.0491 285.342 15.0907 285.342C16.1322 285.342 16.9765 284.489 16.9765 283.447C16.9765 282.406 16.1322 281.553 15.0907 281.553C14.0491 281.553 13.2048 282.406 13.2048 283.447Z" fill="#00BCFF"/>
<path d="M13.2048 290C13.2048 291.042 14.0491 291.895 15.0907 291.895C16.1322 291.895 16.9765 291.042 16.9765 290C16.9765 288.959 16.1322 288.106 15.0907 288.106C14.0491 288.106 13.2048 288.959 13.2048 290Z" fill="white"/>
<path d="M13.2048 296.553C13.2048 297.595 14.0491 298.448 15.0907 298.448C16.1322 298.448 16.9765 297.595 16.9765 296.553C16.9765 295.512 16.1322 294.659 15.0907 294.659C14.0491 294.659 13.2048 295.512 13.2048 296.553Z" fill="white"/>
<path d="M13.2048 303.106C13.2048 304.148 14.0491 305.001 15.0907 305.001C16.1322 305.001 16.9765 304.148 16.9765 303.106C16.9765 302.065 16.1322 301.212 15.0907 301.212C14.0491 301.212 13.2048 302.065 13.2048 303.106Z" fill="white"/>
<path d="M76 191H17C11.4772 191 7 195.477 7 201V249C7 254.523 11.4772 259 17 259H76C81.5228 259 86 254.523 86 249V201C86 195.477 81.5229 191 76 191Z" fill="#075374"/>
<path d="M22 175H71V179C71 181.761 68.7614 184 66 184H27C24.2386 184 22 181.761 22 179V175Z" fill="#075374"/>
<path d="M365.63 0.125824H155.099C152.338 0.125824 150.099 2.36441 150.099 5.12583V136.999C150.099 139.76 152.338 141.999 155.099 141.999H365.63C368.392 141.999 370.63 139.76 370.63 136.999V5.12582C370.63 2.3644 368.392 0.125824 365.63 0.125824Z" fill="#08415C"/>
<path d="M344.565 39.8166H171.724C168.963 39.8166 166.724 42.0552 166.724 44.8166V104.219C166.724 106.981 168.963 109.219 171.724 109.219H344.565C347.327 109.219 349.565 106.981 349.565 104.219V44.8166C349.565 42.0552 347.327 39.8166 344.565 39.8166Z" fill="#075374"/>
<path d="M242.66 51.8407H201.297C200.601 51.8407 200.037 52.4046 200.037 53.1001C200.037 53.7957 200.601 54.3595 201.297 54.3595H242.66C243.355 54.3595 243.919 53.7957 243.919 53.1001C243.919 52.4046 243.355 51.8407 242.66 51.8407Z" fill="white"/>
<path d="M266.633 61.0892H201.252C200.557 61.0892 199.993 61.653 199.993 62.3486C199.993 63.0441 200.557 63.608 201.252 63.608H266.633C267.328 63.608 267.892 63.0441 267.892 62.3486C267.892 61.653 267.328 61.0892 266.633 61.0892Z" fill="#00BCFF"/>
<path d="M252.019 69.8025H201.252C200.557 69.8025 199.993 70.3664 199.993 71.0619C199.993 71.7575 200.557 72.3214 201.252 72.3214H252.019C252.714 72.3214 253.278 71.7575 253.278 71.0619C253.278 70.3664 252.714 69.8025 252.019 69.8025Z" fill="white"/>
<path d="M150 5C150 2.23858 152.239 0 155 0H365.635C368.396 0 370.635 2.23858 370.635 5V9.00923H150V5Z" fill="#075374"/>
<path d="M230.078 78.5159H201.252C200.557 78.5159 199.993 79.0798 199.993 79.7754C199.993 80.4709 200.557 81.0348 201.252 81.0348H230.078C230.773 81.0348 231.337 80.4709 231.337 79.7754C231.337 79.0798 230.773 78.5159 230.078 78.5159Z" fill="white"/>
<path d="M245.75 87.2293H201.252C200.557 87.2293 199.993 87.7932 199.993 88.4887C199.993 89.1843 200.557 89.7482 201.252 89.7482H245.75C246.445 89.7482 247.009 89.1843 247.009 88.4887C247.009 87.7932 246.445 87.2293 245.75 87.2293Z" fill="white"/>
<path d="M180.137 53.6352C180.137 55.0201 181.259 56.154 182.644 56.154C184.029 56.154 185.152 55.0201 185.152 53.6352C185.152 52.2503 184.029 51.1164 182.644 51.1164C181.259 51.1164 180.137 52.2503 180.137 53.6352Z" fill="white"/>
<path d="M180.137 62.3486C180.137 63.7334 181.259 64.8674 182.644 64.8674C184.029 64.8674 185.152 63.7334 185.152 62.3486C185.152 60.9637 184.029 59.8297 182.644 59.8297C181.259 59.8297 180.137 60.9637 180.137 62.3486Z" fill="#00BCFF"/>
<path d="M180.137 71.062C180.137 72.4469 181.259 73.5808 182.644 73.5808C184.029 73.5808 185.152 72.4469 185.152 71.062C185.152 69.6771 184.029 68.5432 182.644 68.5432C181.259 68.5432 180.137 69.6771 180.137 71.062Z" fill="white"/>
<path d="M180.137 79.7754C180.137 81.1603 181.259 82.2942 182.644 82.2942C184.029 82.2942 185.152 81.1603 185.152 79.7754C185.152 78.3905 184.029 77.2566 182.644 77.2566C181.259 77.2566 180.137 78.3905 180.137 79.7754Z" fill="white"/>
<path d="M180.137 88.4887C180.137 89.8736 181.259 91.0075 182.644 91.0075C184.029 91.0075 185.152 89.8736 185.152 88.4887C185.152 87.1038 184.029 85.9699 182.644 85.9699C181.259 85.9699 180.137 87.1038 180.137 88.4887Z" fill="white"/>
<path d="M337.592 48.5124H298.695C297.038 48.5124 295.695 49.8556 295.695 51.5124V90.6115C295.695 92.2683 297.038 93.6115 298.695 93.6115H337.592C339.249 93.6115 340.592 92.2683 340.592 90.6115V51.5124C340.592 49.8556 339.249 48.5124 337.592 48.5124Z" fill="#00BCFF"/>
<path d="M156.967 6.70054C158.006 6.70054 158.848 5.85475 158.848 4.81143C158.848 3.7681 158.006 2.92232 156.967 2.92232C155.929 2.92232 155.087 3.7681 155.087 4.81143C155.087 5.85475 155.929 6.70054 156.967 6.70054Z" fill="white"/>
<path d="M163.558 6.70054C164.597 6.70054 165.439 5.85475 165.439 4.81143C165.439 3.7681 164.597 2.92232 163.558 2.92232C162.52 2.92232 161.678 3.7681 161.678 4.81143C161.678 5.85475 162.52 6.70054 163.558 6.70054Z" fill="white"/>
<path d="M170.15 6.70054C171.188 6.70054 172.03 5.85475 172.03 4.81143C172.03 3.7681 171.188 2.92232 170.15 2.92232C169.111 2.92232 168.269 3.7681 168.269 4.81143C168.269 5.85475 169.111 6.70054 170.15 6.70054Z" fill="white"/>
<path d="M492.081 200H434.52C431.759 200 429.52 202.239 429.52 205V230.063C429.52 232.825 431.759 235.063 434.52 235.063H492.081C494.842 235.063 497.081 232.825 497.081 230.063V205C497.081 202.239 494.842 200 492.081 200Z" fill="#075374"/>
<path d="M492.081 309.714H434.52C431.759 309.714 429.52 311.953 429.52 314.714V339.778C429.52 342.539 431.759 344.778 434.52 344.778H492.081C494.842 344.778 497.081 342.539 497.081 339.778V314.714C497.081 311.953 494.842 309.714 492.081 309.714Z" fill="#075374"/>
<path d="M463.301 328.943C494.395 328.943 519.601 303.623 519.601 272.389C519.601 241.155 494.395 215.835 463.301 215.835C432.207 215.835 407 241.155 407 272.389C407 303.623 432.207 328.943 463.301 328.943Z" fill="#075374"/>
<path d="M463.301 316.501C487.554 316.501 507.215 296.751 507.215 272.389C507.215 248.026 487.554 228.277 463.301 228.277C439.047 228.277 419.386 248.026 419.386 272.389C419.386 296.751 439.047 316.501 463.301 316.501Z" fill="#0A2233"/>
<path d="M482.001 260.302H449.898C449.358 260.302 448.92 260.74 448.92 261.28C448.92 261.82 449.358 262.257 449.898 262.257H482.001C482.541 262.257 482.979 261.82 482.979 261.28C482.979 260.74 482.541 260.302 482.001 260.302Z" fill="white"/>
<path d="M500.608 267.48H449.863C449.324 267.48 448.886 267.918 448.886 268.458C448.886 268.998 449.324 269.435 449.863 269.435H500.608C501.147 269.435 501.585 268.998 501.585 268.458C501.585 267.918 501.147 267.48 500.608 267.48Z" fill="#00BCFF"/>
<path d="M489.265 274.243H449.863C449.324 274.243 448.886 274.681 448.886 275.221C448.886 275.761 449.324 276.198 449.863 276.198H489.265C489.805 276.198 490.243 275.761 490.243 275.221C490.243 274.681 489.805 274.243 489.265 274.243Z" fill="white"/>
<path d="M472.236 281.006H449.863C449.324 281.006 448.886 281.444 448.886 281.984C448.886 282.523 449.324 282.961 449.863 282.961H472.236C472.776 282.961 473.213 282.523 473.213 281.984C473.213 281.444 472.776 281.006 472.236 281.006Z" fill="white"/>
<path d="M484.4 287.769H449.863C449.324 287.769 448.886 288.206 448.886 288.746C448.886 289.286 449.324 289.724 449.863 289.724H484.4C484.939 289.724 485.377 289.286 485.377 288.746C485.377 288.206 484.939 287.769 484.4 287.769Z" fill="white"/>
<path d="M433.475 261.695C433.475 262.77 434.346 263.65 435.421 263.65C436.496 263.65 437.367 262.77 437.367 261.695C437.367 260.62 436.496 259.74 435.421 259.74C434.346 259.74 433.475 260.62 433.475 261.695Z" fill="white"/>
<path d="M433.475 268.458C433.475 269.533 434.346 270.413 435.421 270.413C436.496 270.413 437.367 269.533 437.367 268.458C437.367 267.383 436.496 266.503 435.421 266.503C434.346 266.503 433.475 267.383 433.475 268.458Z" fill="#00BCFF"/>
<path d="M433.475 275.221C433.475 276.296 434.346 277.176 435.421 277.176C436.496 277.176 437.367 276.296 437.367 275.221C437.367 274.146 436.496 273.266 435.421 273.266C434.346 273.266 433.475 274.146 433.475 275.221Z" fill="white"/>
<path d="M433.475 281.984C433.475 283.058 434.346 283.938 435.421 283.938C436.496 283.938 437.367 283.058 437.367 281.984C437.367 280.909 436.496 280.029 435.421 280.029C434.346 280.029 433.475 280.909 433.475 281.984Z" fill="white"/>
<path d="M433.475 288.746C433.475 289.821 434.346 290.701 435.421 290.701C436.496 290.701 437.367 289.821 437.367 288.746C437.367 287.671 436.496 286.791 435.421 286.791C434.346 286.791 433.475 287.671 433.475 288.746Z" fill="white"/>
</g>
<defs>
<clipPath id="clip0_140_2257">
<rect width="520" height="589" fill="white"/>
</clipPath>
</defs>
</svg>
