<svg width="184" height="32" viewBox="0 0 184 32" fill="none" xmlns="http://www.w3.org/2000/svg">
<path d="M20.4409 16C20.4409 18.651 18.329 20.8 15.7238 20.8C13.1186 20.8 11.0066 18.651 11.0066 16C11.0066 13.349 13.1186 11.2 15.7238 11.2C18.329 11.2 20.4409 13.349 20.4409 16Z" fill="#21AFFF"/>
<path d="M15.7238 0C23.4861 0 29.9609 5.49683 31.4475 12.8H24.6212C23.3261 9.07138 19.8315 6.4 15.7238 6.4C11.616 6.4 8.12146 9.07138 6.82633 12.8H2.77107e-08C1.48661 5.49683 7.96147 0 15.7238 0Z" fill="#21AFFF"/>
<path d="M6.82633 19.2H0C1.48661 26.5032 7.96147 32 15.7238 32C23.4861 32 29.9609 26.5032 31.4475 19.2H24.6212C23.3261 22.9286 19.8315 25.6 15.7238 25.6C11.616 25.6 8.12146 22.9286 6.82633 19.2Z" fill="#21AFFF"/>
<path d="M49.1591 27.5V4.22727H58.1824C59.9171 4.22727 61.3949 4.56439 62.6159 5.23864C63.8369 5.9053 64.7675 6.83333 65.4078 8.02273C66.0555 9.20454 66.3793 10.5682 66.3793 12.1136C66.3793 13.6591 66.0518 15.0227 65.3966 16.2045C64.7414 17.3864 63.7922 18.3068 62.5489 18.9659C61.313 19.625 59.8166 19.9545 58.0596 19.9545H52.3083V16.0114H57.2779C58.2085 16.0114 58.9753 15.8485 59.5784 15.5227C60.1888 15.1894 60.643 14.7311 60.9408 14.1477C61.246 13.5568 61.3987 12.8788 61.3987 12.1136C61.3987 11.3409 61.246 10.6667 60.9408 10.0909C60.643 9.50757 60.1888 9.05682 59.5784 8.73864C58.9679 8.41288 58.1936 8.25 57.2555 8.25H53.9946V27.5H49.1591Z" fill="#21AFFF"/>
<path d="M76.9047 27.8409C75.17 27.8409 73.6698 27.4659 72.4042 26.7159C71.146 25.9583 70.1744 24.9053 69.4895 23.5568C68.8045 22.2008 68.4621 20.6288 68.4621 18.8409C68.4621 17.0379 68.8045 15.4621 69.4895 14.1136C70.1744 12.7576 71.146 11.7045 72.4042 10.9545C73.6698 10.197 75.17 9.81818 76.9047 9.81818C78.6393 9.81818 80.1358 10.197 81.394 10.9545C82.6596 11.7045 83.6349 12.7576 84.3198 14.1136C85.0048 15.4621 85.3473 17.0379 85.3473 18.8409C85.3473 20.6288 85.0048 22.2008 84.3198 23.5568C83.6349 24.9053 82.6596 25.9583 81.394 26.7159C80.1358 27.4659 78.6393 27.8409 76.9047 27.8409ZM76.927 24.0909C77.7162 24.0909 78.375 23.8636 78.9036 23.4091C79.4322 22.947 79.8305 22.3182 80.0986 21.5227C80.374 20.7273 80.5118 19.822 80.5118 18.8068C80.5118 17.7917 80.374 16.8864 80.0986 16.0909C79.8305 15.2955 79.4322 14.6667 78.9036 14.2045C78.375 13.7424 77.7162 13.5114 76.927 13.5114C76.1304 13.5114 75.4603 13.7424 74.9169 14.2045C74.3808 14.6667 73.9751 15.2955 73.6996 16.0909C73.4316 16.8864 73.2976 17.7917 73.2976 18.8068C73.2976 19.822 73.4316 20.7273 73.6996 21.5227C73.9751 22.3182 74.3808 22.947 74.9169 23.4091C75.4603 23.8636 76.1304 24.0909 76.927 24.0909Z" fill="#21AFFF"/>
<path d="M93.198 4.22727V27.5H88.4406V4.22727H93.198Z" fill="#21AFFF"/>
<path d="M101.9 27.8295C100.806 27.8295 99.8305 27.6364 98.9743 27.25C98.1182 26.8561 97.4407 26.2765 96.9419 25.5114C96.4505 24.7386 96.2048 23.7765 96.2048 22.625C96.2048 21.6553 96.3798 20.8409 96.7297 20.1818C97.0796 19.5227 97.5561 18.9924 98.1591 18.5909C98.7622 18.1894 99.4471 17.8864 100.214 17.6818C100.988 17.4773 101.8 17.3333 102.648 17.25C103.646 17.1439 104.45 17.0455 105.061 16.9545C105.671 16.8561 106.114 16.7121 106.39 16.5227C106.665 16.3333 106.803 16.053 106.803 15.6818V15.6136C106.803 14.8939 106.579 14.3371 106.133 13.9432C105.693 13.5492 105.068 13.3523 104.257 13.3523C103.4 13.3523 102.719 13.5455 102.213 13.9318C101.707 14.3106 101.372 14.7879 101.208 15.3636L96.8079 15C97.0312 13.9394 97.4705 13.0227 98.1256 12.25C98.7808 11.4697 99.6258 10.8712 100.661 10.4545C101.703 10.0303 102.909 9.81818 104.279 9.81818C105.232 9.81818 106.144 9.93182 107.015 10.1591C107.893 10.3864 108.671 10.7386 109.349 11.2159C110.034 11.6932 110.574 12.3068 110.968 13.0568C111.363 13.7992 111.56 14.6894 111.56 15.7273V27.5H107.048V25.0795H106.914C106.639 25.625 106.27 26.1061 105.809 26.5227C105.347 26.9318 104.793 27.2538 104.145 27.4886C103.497 27.7159 102.749 27.8295 101.9 27.8295ZM103.263 24.4886C103.962 24.4886 104.58 24.3485 105.116 24.0682C105.652 23.7803 106.073 23.3939 106.378 22.9091C106.684 22.4242 106.836 21.875 106.836 21.2614V19.4091C106.687 19.5076 106.483 19.5985 106.222 19.6818C105.969 19.7576 105.682 19.8295 105.362 19.8977C105.042 19.9583 104.722 20.0152 104.402 20.0682C104.082 20.1136 103.791 20.1553 103.531 20.1932C102.972 20.2765 102.485 20.4091 102.068 20.5909C101.651 20.7727 101.327 21.0189 101.096 21.3295C100.865 21.6326 100.75 22.0114 100.75 22.4659C100.75 23.125 100.984 23.6288 101.454 23.9773C101.93 24.3182 102.533 24.4886 103.263 24.4886Z" fill="#21AFFF"/>
<path d="M120.008 17.4091V27.5H115.251V10.0455H119.785V13.125H119.986C120.366 12.1098 121.002 11.3068 121.896 10.7159C122.789 10.1174 123.872 9.81818 125.145 9.81818C126.336 9.81818 127.375 10.0833 128.261 10.6136C129.147 11.1439 129.836 11.9015 130.327 12.8864C130.818 13.8636 131.064 15.0303 131.064 16.3864V27.5H126.307V17.25C126.314 16.1818 126.046 15.3485 125.503 14.75C124.959 14.1439 124.211 13.8409 123.258 13.8409C122.618 13.8409 122.052 13.9811 121.561 14.2614C121.077 14.5417 120.697 14.9508 120.421 15.4886C120.153 16.0189 120.016 16.6591 120.008 17.4091Z" fill="#21AFFF"/>
<path d="M139.571 17.4091V27.5H134.813V10.0455H139.347V13.125H139.548C139.928 12.1098 140.565 11.3068 141.458 10.7159C142.352 10.1174 143.435 9.81818 144.708 9.81818C145.899 9.81818 146.938 10.0833 147.824 10.6136C148.71 11.1439 149.398 11.9015 149.89 12.8864C150.381 13.8636 150.627 15.0303 150.627 16.3864V27.5H145.869V17.25C145.877 16.1818 145.609 15.3485 145.065 14.75C144.522 14.1439 143.774 13.8409 142.821 13.8409C142.18 13.8409 141.614 13.9811 141.123 14.2614C140.639 14.5417 140.259 14.9508 139.984 15.4886C139.716 16.0189 139.578 16.6591 139.571 17.4091Z" fill="#21AFFF"/>
<path d="M162.193 27.8409C160.429 27.8409 158.91 27.4773 157.637 26.75C156.371 26.0152 155.396 24.9773 154.711 23.6364C154.026 22.2879 153.684 20.6932 153.684 18.8523C153.684 17.0568 154.026 15.4811 154.711 14.125C155.396 12.7689 156.36 11.7121 157.603 10.9545C158.854 10.197 160.321 9.81818 162.003 9.81818C163.135 9.81818 164.189 10.0038 165.164 10.375C166.147 10.7386 167.003 11.2879 167.732 12.0227C168.469 12.7576 169.043 13.6818 169.452 14.7955C169.862 15.9015 170.066 17.197 170.066 18.6818V20.0114H155.582V17.0114H165.588C165.588 16.3144 165.439 15.697 165.142 15.1591C164.844 14.6212 164.431 14.2008 163.902 13.8977C163.381 13.5871 162.774 13.4318 162.082 13.4318C161.359 13.4318 160.719 13.6023 160.161 13.9432C159.61 14.2765 159.178 14.7273 158.865 15.2955C158.553 15.8561 158.393 16.4811 158.385 17.1705V20.0227C158.385 20.8864 158.542 21.6326 158.854 22.2614C159.174 22.8902 159.625 23.375 160.205 23.7159C160.786 24.0568 161.475 24.2273 162.271 24.2273C162.8 24.2273 163.284 24.1515 163.723 24C164.162 23.8485 164.538 23.6212 164.851 23.3182C165.164 23.0152 165.402 22.6439 165.566 22.2045L169.966 22.5C169.742 23.5758 169.285 24.5152 168.592 25.3182C167.907 26.1136 167.021 26.7348 165.934 27.1818C164.855 27.6212 163.608 27.8409 162.193 27.8409Z" fill="#21AFFF"/>
<path d="M173.171 27.5V10.0455H177.783V13.0909H177.962C178.274 12.0076 178.799 11.1894 179.536 10.6364C180.273 10.0758 181.122 9.79545 182.083 9.79545C182.321 9.79545 182.578 9.81061 182.853 9.84091C183.129 9.87121 183.371 9.91288 183.579 9.96591V14.2614C183.356 14.1932 183.047 14.1326 182.652 14.0795C182.257 14.0265 181.896 14 181.569 14C180.869 14 180.244 14.1553 179.693 14.4659C179.149 14.7689 178.717 15.1932 178.397 15.7386C178.085 16.2841 177.928 16.9129 177.928 17.625V27.5H173.171Z" fill="#21AFFF"/>
</svg>
