<svg width="24" height="24" viewBox="0 0 24 24" fill="none" xmlns="http://www.w3.org/2000/svg">
<path d="M1 12H23ZM12 7.11111V12ZM5.27778 12V16.8889ZM18.7222 12V16.8889ZM9.67778 7.11111H14.3222C15.0068 7.11111 15.349 7.11111 15.6104 6.9779C15.8405 6.86071 16.0273 6.67374 16.1446 6.44377C16.2778 6.18232 16.2778 5.84006 16.2778 5.15556V2.95556C16.2778 2.27105 16.2778 1.92879 16.1446 1.66735C16.0273 1.43737 15.8405 1.2504 15.6104 1.13321C15.349 1 15.0068 1 14.3222 1H9.67778C8.99327 1 8.65101 1 8.38957 1.13321C8.15959 1.2504 7.97262 1.43737 7.85543 1.66735C7.72222 1.92879 7.72222 2.27105 7.72222 2.95556V5.15556C7.72222 5.84006 7.72222 6.18232 7.85543 6.44377C7.97262 6.67374 8.15959 6.86071 8.38957 6.9779C8.65101 7.11111 8.99327 7.11111 9.67778 7.11111ZM16.4 23H21.0444C21.729 23 22.0712 23 22.3327 22.8668C22.5627 22.7496 22.7496 22.5627 22.8668 22.3327C23 22.0712 23 21.729 23 21.0444V18.8444C23 18.1599 23 17.8177 22.8668 17.5562C22.7496 17.3262 22.5627 17.1393 22.3327 17.0221C22.0712 16.8889 21.729 16.8889 21.0444 16.8889H16.4C15.7154 16.8889 15.3732 16.8889 15.1118 17.0221C14.8818 17.1393 14.6949 17.3262 14.5777 17.5562C14.4444 17.8177 14.4444 18.1599 14.4444 18.8444V21.0444C14.4444 21.729 14.4444 22.0712 14.5777 22.3327C14.6949 22.5627 14.8818 22.7496 15.1118 22.8668C15.3732 23 15.7154 23 16.4 23ZM2.95556 23H7.6C8.2845 23 8.62676 23 8.88821 22.8668C9.11818 22.7496 9.30516 22.5627 9.42235 22.3327C9.55556 22.0712 9.55556 21.729 9.55556 21.0444V18.8444C9.55556 18.1599 9.55556 17.8177 9.42235 17.5562C9.30516 17.3262 9.11818 17.1393 8.88821 17.0221C8.62676 16.8889 8.2845 16.8889 7.6 16.8889H2.95556C2.27105 16.8889 1.92879 16.8889 1.66735 17.0221C1.43737 17.1393 1.2504 17.3262 1.13321 17.5562C1 17.8177 1 18.1599 1 18.8444V21.0444C1 21.729 1 22.0712 1.13321 22.3327C1.2504 22.5627 1.43737 22.7496 1.66735 22.8668C1.92879 23 2.27105 23 2.95556 23Z" fill="#414C5E"/>
<path d="M1 12H23M12 7.11111V12M5.27778 12V16.8889M18.7222 12V16.8889M9.67778 7.11111H14.3222C15.0068 7.11111 15.349 7.11111 15.6104 6.9779C15.8405 6.86071 16.0273 6.67374 16.1446 6.44377C16.2778 6.18232 16.2778 5.84006 16.2778 5.15556V2.95556C16.2778 2.27105 16.2778 1.92879 16.1446 1.66735C16.0273 1.43737 15.8405 1.2504 15.6104 1.13321C15.349 1 15.0068 1 14.3222 1H9.67778C8.99327 1 8.65101 1 8.38957 1.13321C8.15959 1.2504 7.97262 1.43737 7.85543 1.66735C7.72222 1.92879 7.72222 2.27105 7.72222 2.95556V5.15556C7.72222 5.84006 7.72222 6.18232 7.85543 6.44377C7.97262 6.67374 8.15959 6.86071 8.38957 6.9779C8.65101 7.11111 8.99327 7.11111 9.67778 7.11111ZM16.4 23H21.0444C21.729 23 22.0712 23 22.3327 22.8668C22.5627 22.7496 22.7496 22.5627 22.8668 22.3327C23 22.0712 23 21.729 23 21.0444V18.8444C23 18.1599 23 17.8177 22.8668 17.5562C22.7496 17.3262 22.5627 17.1393 22.3327 17.0221C22.0712 16.8889 21.729 16.8889 21.0444 16.8889H16.4C15.7154 16.8889 15.3732 16.8889 15.1118 17.0221C14.8818 17.1393 14.6949 17.3262 14.5777 17.5562C14.4444 17.8177 14.4444 18.1599 14.4444 18.8444V21.0444C14.4444 21.729 14.4444 22.0712 14.5777 22.3327C14.6949 22.5627 14.8818 22.7496 15.1118 22.8668C15.3732 23 15.7154 23 16.4 23ZM2.95556 23H7.6C8.2845 23 8.62676 23 8.88821 22.8668C9.11818 22.7496 9.30516 22.5627 9.42235 22.3327C9.55556 22.0712 9.55556 21.729 9.55556 21.0444V18.8444C9.55556 18.1599 9.55556 17.8177 9.42235 17.5562C9.30516 17.3262 9.11818 17.1393 8.88821 17.0221C8.62676 16.8889 8.2845 16.8889 7.6 16.8889H2.95556C2.27105 16.8889 1.92879 16.8889 1.66735 17.0221C1.43737 17.1393 1.2504 17.3262 1.13321 17.5562C1 17.8177 1 18.1599 1 18.8444V21.0444C1 21.729 1 22.0712 1.13321 22.3327C1.2504 22.5627 1.43737 22.7496 1.66735 22.8668C1.92879 23 2.27105 23 2.95556 23Z" stroke="white" stroke-width="1.5" stroke-linecap="round" stroke-linejoin="round"/>
</svg>
