<svg width="25" height="25" viewBox="0 0 25 25" fill="none" xmlns="http://www.w3.org/2000/svg">
<path d="M23.5 12.5C23.5 18.5752 18.5752 23.5 12.5 23.5ZM23.5 12.5C23.5 6.42487 18.5752 1.5 12.5 1.5ZM23.5 12.5C23.5 14.1198 20.3494 15.4942 15.9795 15.9795C14.8859 16.1009 13.716 16.1667 12.5 16.1667C11.284 16.1667 10.1141 16.1009 9.02054 15.9795C4.65066 15.4942 1.5 14.1198 1.5 12.5M23.5 12.5C23.5 10.8802 20.3494 9.50584 15.9795 9.02054C14.8859 8.8991 13.716 8.83333 12.5 8.83333C11.284 8.83333 10.1141 8.8991 9.02055 9.02055C4.65067 9.50585 1.5 10.8802 1.5 12.5M12.5 23.5C6.42487 23.5 1.5 18.5752 1.5 12.5ZM12.5 23.5C10.8802 23.5 9.50584 20.3494 9.02054 15.9795C8.8991 14.8859 8.83333 13.716 8.83333 12.5C8.83333 11.284 8.8991 10.1141 9.02055 9.02055C9.50585 4.65067 10.8802 1.5 12.5 1.5M12.5 23.5C14.1198 23.5 15.4942 20.3494 15.9795 15.9795C16.1009 14.8859 16.1667 13.716 16.1667 12.5C16.1667 11.284 16.1009 10.1141 15.9795 9.02054C15.4942 4.65066 14.1198 1.5 12.5 1.5M1.5 12.5C1.5 6.42487 6.42487 1.5 12.5 1.5Z" fill="#414C5E"/>
<path d="M1.5 12.5C1.5 10.8802 4.65067 9.50585 9.02055 9.02055C9.50585 4.65067 10.8802 1.5 12.5 1.5C6.42487 1.5 1.5 6.42487 1.5 12.5Z" fill="#414C5E"/>
<path d="M12.5 16.1667C13.716 16.1667 14.8859 16.1009 15.9795 15.9795C16.1009 14.8859 16.1667 13.716 16.1667 12.5C16.1667 11.284 16.1009 10.1141 15.9795 9.02054C14.8859 8.8991 13.716 8.83333 12.5 8.83333C11.284 8.83333 10.1141 8.8991 9.02055 9.02055C8.8991 10.1141 8.83333 11.284 8.83333 12.5C8.83333 13.716 8.8991 14.8859 9.02054 15.9795C10.1141 16.1009 11.284 16.1667 12.5 16.1667Z" fill="#414C5E"/>
<path d="M23.5 12.5C23.5 6.42487 18.5752 1.5 12.5 1.5C14.1198 1.5 15.4942 4.65066 15.9795 9.02054C20.3494 9.50584 23.5 10.8802 23.5 12.5Z" fill="#414C5E"/>
<path d="M12.5 23.5C18.5752 23.5 23.5 18.5752 23.5 12.5C23.5 14.1198 20.3494 15.4942 15.9795 15.9795C15.4942 20.3494 14.1198 23.5 12.5 23.5Z" fill="#414C5E"/>
<path d="M1.5 12.5C1.5 18.5752 6.42487 23.5 12.5 23.5C10.8802 23.5 9.50584 20.3494 9.02054 15.9795C4.65066 15.4942 1.5 14.1198 1.5 12.5Z" fill="#414C5E"/>
<path d="M23.5 12.5C23.5 18.5752 18.5752 23.5 12.5 23.5M23.5 12.5C23.5 6.42487 18.5752 1.5 12.5 1.5M23.5 12.5C23.5 10.8802 20.3494 9.50584 15.9795 9.02054M23.5 12.5C23.5 14.1198 20.3494 15.4942 15.9795 15.9795M12.5 23.5C6.42487 23.5 1.5 18.5752 1.5 12.5M12.5 23.5C10.8802 23.5 9.50584 20.3494 9.02054 15.9795M12.5 23.5C14.1198 23.5 15.4942 20.3494 15.9795 15.9795M12.5 1.5C6.42487 1.5 1.5 6.42487 1.5 12.5M12.5 1.5C10.8802 1.5 9.50585 4.65067 9.02055 9.02055M12.5 1.5C14.1198 1.5 15.4942 4.65066 15.9795 9.02054M1.5 12.5C1.5 10.8802 4.65067 9.50585 9.02055 9.02055M1.5 12.5C1.5 14.1198 4.65066 15.4942 9.02054 15.9795M9.02055 9.02055C8.8991 10.1141 8.83333 11.284 8.83333 12.5C8.83333 13.716 8.8991 14.8859 9.02054 15.9795M9.02055 9.02055C10.1141 8.8991 11.284 8.83333 12.5 8.83333C13.716 8.83333 14.8859 8.8991 15.9795 9.02054M15.9795 15.9795C14.8859 16.1009 13.716 16.1667 12.5 16.1667C11.284 16.1667 10.1141 16.1009 9.02054 15.9795M15.9795 15.9795C16.1009 14.8859 16.1667 13.716 16.1667 12.5C16.1667 11.284 16.1009 10.1141 15.9795 9.02054" stroke="white" stroke-width="1.5" stroke-linecap="round" stroke-linejoin="round"/>
</svg>
