<svg width="24" height="24" viewBox="0 0 24 24" fill="none" xmlns="http://www.w3.org/2000/svg">
<path d="M13.7368 0.916668H20.6842C21.9632 0.916668 23 2.01108 23 3.36111V20.4722C23 21.8223 21.9632 22.9167 20.6842 22.9167H17.2105H13.7368" fill="#414C5E"/>
<path d="M13.7368 0.916668H20.6842C21.9632 0.916668 23 2.01108 23 3.36111V20.4722C23 21.8223 21.9632 22.9167 20.6842 22.9167H17.2105H13.7368" stroke="white" stroke-width="1.5" stroke-linecap="round" stroke-linejoin="round"/>
<path d="M10.2632 0.916668H17.2105C18.4895 0.916668 19.5263 2.01108 19.5263 3.36111V5.80556V18.0278V20.4722C19.5263 21.8223 18.4895 22.9167 17.2105 22.9167H10.2632H3.31579C2.03681 22.9167 1 21.8223 1 20.4722V18.0278V5.80556V3.36111C1 2.01108 2.03681 0.916668 3.31579 0.916668H10.2632Z" fill="#414C5E" stroke="white" stroke-width="1.5" stroke-linecap="round" stroke-linejoin="round"/>
<path d="M13.7368 11.9166C13.7368 13.9417 12.1816 15.5833 10.2631 15.5833C8.34465 15.5833 6.78943 13.9417 6.78943 11.9166C6.78943 9.89154 8.34465 8.24997 10.2631 8.24997C12.1816 8.24997 13.7368 9.89154 13.7368 11.9166Z" fill="white" fill-opacity="0.1" stroke="white" stroke-width="1.5"/>
<path d="M7 23.0833C7.49264 20.2634 8.75999 19.4167 11.6316 19.4167C14.5032 19.4167 15.7705 20.2019 16.2632 23.0219" fill="white" fill-opacity="0.1"/>
<path d="M7 23.0833C7.49264 20.2634 8.75999 19.4167 11.6316 19.4167C14.5032 19.4167 15.7705 20.2019 16.2632 23.0219" stroke="white" stroke-width="1.5" stroke-linecap="round"/>
</svg>
