<svg width="21" height="20" viewBox="0 0 21 20" fill="none" xmlns="http://www.w3.org/2000/svg">
<path fill-rule="evenodd" clip-rule="evenodd" d="M2.09953 8.77886C4.56813 8.98371 6.93182 8.48838 8.8886 7.3687C7.89433 5.8967 6.73504 4.54629 5.45188 3.37365C3.68462 4.61648 2.437 6.54837 2.09953 8.77886ZM5.04974 1.36901C2.09028 3.10554 0.103271 6.32072 0.103271 10C0.103271 15.5229 4.58042 20 10.1033 20C15.6261 20 20.1033 15.5229 20.1033 10C20.1033 4.47715 15.6261 0 10.1033 0C8.27032 0 6.55251 0.493162 5.07535 1.35404C5.06675 1.35889 5.05821 1.36388 5.04974 1.36901ZM7.22828 2.43014C8.41594 3.58088 9.49832 4.87387 10.4449 6.2702C11.5963 5.27801 12.5226 4.00999 13.1301 2.48962C12.1951 2.11241 11.1735 1.90476 10.1033 1.90476C9.0908 1.90476 8.12169 2.09065 7.22828 2.43014ZM14.8104 3.41321C14.0393 5.2449 12.8808 6.74815 11.4637 7.90524C11.7945 8.48476 12.1023 9.0781 12.3854 9.68286C14.1781 8.98514 16.1194 8.66267 18.1142 8.82762C17.7911 6.6001 16.5609 4.66641 14.8104 3.41321ZM18.1647 10.7451C16.4296 10.5678 14.7176 10.8311 13.1255 11.4412C13.7807 13.1893 14.2271 15.0089 14.4234 16.8473C16.4943 15.538 17.9301 13.3152 18.1647 10.7451ZM12.5877 17.7069C12.4578 15.8659 12.0452 14.0292 11.3988 12.2639C9.38127 13.4232 7.65039 15.1548 6.44729 17.2246C7.54548 17.7814 8.78775 18.0952 10.1033 18.0952C10.9699 18.0952 11.8049 17.959 12.5877 17.7069ZM4.85937 16.1674C6.25412 13.811 8.27765 11.8133 10.6613 10.4928C10.4228 9.98295 10.165 9.48152 9.88927 8.99038C7.59116 10.3166 4.84216 10.8994 2.03658 10.6847C2.22018 12.8771 3.27755 14.8211 4.85937 16.1674Z" fill="white"/>
</svg>
