<svg width="800" height="801" viewBox="0 0 800 801" fill="none" xmlns="http://www.w3.org/2000/svg">
<path d="M259.224 470.199L70.8271 658.596L141.54 729.309L329.937 540.912L259.224 470.199Z" fill="black"/>
<path d="M0 537.867L131.079 668.946L0 800V537.867Z" fill="black"/>
<path d="M262.258 800L131.179 668.921L0 800H262.258Z" fill="black"/>
<path d="M658.193 70.7293L469.814 259.108L540.527 329.821L728.906 141.442L658.193 70.7293Z" fill="black"/>
<path d="M799.625 262.158L668.545 131.079L799.625 0V262.158Z" fill="black"/>
<path d="M537.517 0.0253906L668.571 131.104L799.65 0.0253906H537.517Z" fill="black"/>
<path d="M141.49 70.7417L70.7769 141.455L259.156 329.834L329.869 259.121L141.49 70.7417Z" fill="black"/>
<path d="M262.208 0.0253906L131.129 131.104L0 0.0253906H262.208Z" fill="black"/>
<path d="M0 262.184L131.079 131.104L0 0.0253906V262.184Z" fill="black"/>
<path d="M540.492 470.215L469.79 540.917L658.158 729.285L728.86 658.583L540.492 470.215Z" fill="black"/>
<path d="M537.517 800.025L668.571 668.971L799.675 800.025H537.517Z" fill="black"/>
<path d="M799.649 537.892L668.545 668.971L799.649 800.026V537.892Z" fill="black"/>
</svg>
