<svg width="24" height="24" viewBox="0 0 24 24" fill="none" xmlns="http://www.w3.org/2000/svg">
<path fill-rule="evenodd" clip-rule="evenodd" d="M19.5233 20.025L19.4397 19.8304C18.9662 18.5702 18.1765 17.743 16.9485 17.2435C15.7422 16.7527 14.1248 16.5833 12.0001 16.5833C9.89167 16.5833 8.28337 16.7632 7.07985 17.2593C5.85678 17.7635 5.0646 18.5889 4.58483 19.8275L4.4913 20.0387C2.34293 18.0311 1 15.1724 1 12C1 5.92487 5.92487 1 12 1C18.0752 1 23 5.92487 23 12C23 15.1652 21.6631 18.0181 19.5233 20.025ZM8.02778 9.55556C8.02778 7.36175 9.80623 5.58333 12 5.58333C14.1938 5.58333 15.9722 7.36175 15.9722 9.55556C15.9722 11.7493 14.1938 13.5278 12 13.5278C9.80623 13.5278 8.02778 11.7493 8.02778 9.55556Z" fill="#414C5E"/>
<path d="M23 12C23 18.0752 18.0752 23 12 23C5.92487 23 1 18.0752 1 12C1 5.92487 5.92487 1 12 1C18.0752 1 23 5.92487 23 12Z" fill="#414C5E"/>
<path d="M15.6667 9.55556C15.6667 11.5807 14.0251 13.2222 12 13.2222C9.9749 13.2222 8.33334 11.5807 8.33334 9.55556C8.33334 7.53052 9.9749 5.88889 12 5.88889C14.0251 5.88889 15.6667 7.53052 15.6667 9.55556Z" fill="#414C5E"/>
<path d="M4.86719 19.9444C5.76757 17.6115 7.80012 16.8889 12.0001 16.8889C16.2363 16.8889 18.2676 17.5706 19.1561 19.9444" fill="#414C5E"/>
<path d="M1 12C1 15.1724 2.34293 18.0311 4.4913 20.0387L4.58483 19.8275C5.0646 18.5889 5.85678 17.7635 7.07985 17.2593C8.28337 16.7632 9.89167 16.5833 12.0001 16.5833C14.1248 16.5833 15.7422 16.7527 16.9485 17.2435C18.1765 17.743 18.9662 18.5702 19.4397 19.8304L19.5233 20.025C21.6631 18.0181 23 15.1652 23 12M1 12C1 5.92487 5.92487 1 12 1C18.0752 1 23 5.92487 23 12M1 12C1 18.0752 5.92487 23 12 23C18.0752 23 23 18.0752 23 12M4.86719 19.9444C5.76757 17.6115 7.80012 16.8889 12.0001 16.8889C16.2363 16.8889 18.2676 17.5706 19.1561 19.9444M8.02778 9.55556C8.02778 7.36175 9.80623 5.58333 12 5.58333C14.1938 5.58333 15.9722 7.36175 15.9722 9.55556C15.9722 11.7493 14.1938 13.5278 12 13.5278C9.80623 13.5278 8.02778 11.7493 8.02778 9.55556ZM15.6667 9.55556C15.6667 11.5807 14.0251 13.2222 12 13.2222C9.9749 13.2222 8.33334 11.5807 8.33334 9.55556C8.33334 7.53052 9.9749 5.88889 12 5.88889C14.0251 5.88889 15.6667 7.53052 15.6667 9.55556Z" stroke="white" stroke-width="1.5" stroke-linecap="round"/>
</svg>
