<svg width="24" height="24" viewBox="0 0 24 24" fill="none" xmlns="http://www.w3.org/2000/svg">
<path d="M23 13.3196V5.92783C23 3.60482 23 2.44332 22.284 1.72167C21.568 1 20.4157 1 18.1111 1H5.88889C3.58424 1 2.43192 1 1.71597 1.72167C1 2.44332 1 3.60482 1 5.92783V13.3196C1 15.6425 1 16.804 1.71597 17.5257C2.43192 18.2474 3.58424 18.2474 5.88889 18.2474H8.33333H8.36171C8.72422 18.2474 9.06117 18.4356 9.25329 18.7455L11.8338 22.9071C11.9105 23.031 12.0895 23.031 12.1662 22.9071L14.8044 18.6525C14.9606 18.4004 15.2346 18.2474 15.5294 18.2474H15.6667H18.1111C20.4157 18.2474 21.568 18.2474 22.284 17.5257C23 16.804 23 15.6425 23 13.3196Z" fill="#414C5E"/>
<path d="M5.88892 8.39174H18.1111" stroke="white" stroke-width="2" stroke-linecap="round"/>
<path d="M5.88892 12.0876H13.2222" stroke="white" stroke-width="2" stroke-linecap="round"/>
<path d="M23 13.3196V5.92783C23 3.60482 23 2.44332 22.284 1.72167C21.568 1 20.4157 1 18.1111 1H5.88889C3.58424 1 2.43192 1 1.71597 1.72167C1 2.44332 1 3.60482 1 5.92783V13.3196C1 15.6425 1 16.804 1.71597 17.5257C2.43192 18.2474 3.58424 18.2474 5.88889 18.2474H8.33333H8.36171C8.72422 18.2474 9.06117 18.4356 9.25329 18.7455L11.8338 22.9071C11.9105 23.031 12.0895 23.031 12.1662 22.9071L14.8044 18.6525C14.9606 18.4004 15.2346 18.2474 15.5294 18.2474H15.6667H18.1111C20.4157 18.2474 21.568 18.2474 22.284 17.5257C23 16.804 23 15.6425 23 13.3196Z" stroke="white" stroke-width="2" stroke-linejoin="round"/>
</svg>
