<svg width="20" height="20" viewBox="0 0 20 20" fill="none" xmlns="http://www.w3.org/2000/svg">
<path fill-rule="evenodd" clip-rule="evenodd" d="M1.99626 8.77886C4.46486 8.98371 6.82855 8.48838 8.78533 7.3687C7.79106 5.8967 6.63177 4.54629 5.34861 3.37365C3.58135 4.61648 2.33373 6.54837 1.99626 8.77886ZM4.94647 1.36901C1.98701 3.10554 0 6.32072 0 10C0 15.5229 4.47715 20 10 20C15.5229 20 20 15.5229 20 10C20 4.47715 15.5229 0 10 0C8.16705 0 6.44924 0.493162 4.97208 1.35404C4.96348 1.35889 4.95494 1.36388 4.94647 1.36901ZM7.12501 2.43014C8.31267 3.58088 9.39505 4.87387 10.3416 6.2702C11.493 5.27801 12.4193 4.00999 13.0269 2.48962C12.0918 2.11241 11.0702 1.90476 10 1.90476C8.98752 1.90476 8.01842 2.09065 7.12501 2.43014ZM14.7071 3.41321C13.936 5.2449 12.7775 6.74815 11.3604 7.90524C11.6912 8.48476 11.999 9.0781 12.2821 9.68286C14.0749 8.98514 16.0161 8.66267 18.011 8.82762C17.6878 6.6001 16.4576 4.66641 14.7071 3.41321ZM18.0614 10.7451C16.3263 10.5678 14.6143 10.8311 13.0222 11.4412C13.6774 13.1893 14.1238 15.0089 14.3201 16.8473C16.391 15.538 17.8269 13.3152 18.0614 10.7451ZM12.4844 17.7069C12.3546 15.8659 11.9419 14.0292 11.2955 12.2639C9.278 13.4232 7.54712 15.1548 6.34402 17.2246C7.44221 17.7814 8.68448 18.0952 10 18.0952C10.8667 18.0952 11.7016 17.959 12.4844 17.7069ZM4.7561 16.1674C6.15085 13.811 8.17438 11.8133 10.558 10.4928C10.3195 9.98295 10.0617 9.48152 9.786 8.99038C7.48789 10.3166 4.73889 10.8994 1.9333 10.6847C2.1169 12.8771 3.17428 14.8211 4.7561 16.1674Z" fill="#000000"/>
</svg>
