<svg width="24" height="24" viewBox="0 0 24 24" fill="none" xmlns="http://www.w3.org/2000/svg">
<path d="M13.7368 1H20.6842C21.9632 1 23 2.09441 23 3.44444V20.5556C23 21.9056 21.9632 23 20.6842 23H17.2105H13.7368" fill="#414C5E"/>
<path d="M13.7368 1H20.6842C21.9632 1 23 2.09441 23 3.44444V20.5556C23 21.9056 21.9632 23 20.6842 23H17.2105H13.7368" stroke="white" stroke-width="2" stroke-linecap="round" stroke-linejoin="round"/>
<path d="M10.2632 1H17.2105C18.4895 1 19.5263 2.09441 19.5263 3.44444V5.88889V18.1111V20.5556C19.5263 21.9056 18.4895 23 17.2105 23H10.2632H3.31579C2.03681 23 1 21.9056 1 20.5556V18.1111V5.88889V3.44444C1 2.09441 2.03681 1 3.31579 1H10.2632Z" fill="#414C5E" stroke="white" stroke-width="2" stroke-linecap="round" stroke-linejoin="round"/>
<path d="M13.7368 12C13.7368 14.0251 12.1816 15.6666 10.2631 15.6666C8.34465 15.6666 6.78943 14.0251 6.78943 12C6.78943 9.97487 8.34465 8.3333 10.2631 8.3333C12.1816 8.3333 13.7368 9.97487 13.7368 12Z" fill="white" fill-opacity="0.1" stroke="white" stroke-width="2"/>
<path d="M5.63159 23C6.12423 20.1801 7.39158 19.3333 10.2632 19.3333C13.1347 19.3333 14.4021 20.1186 14.8947 22.9385" fill="white" fill-opacity="0.1"/>
<path d="M5.63159 23C6.12423 20.1801 7.39158 19.3333 10.2632 19.3333C13.1347 19.3333 14.4021 20.1186 14.8947 22.9385" stroke="white" stroke-width="2" stroke-linecap="round"/>
</svg>
