<svg width="19" height="16" viewBox="0 0 19 16" fill="none" xmlns="http://www.w3.org/2000/svg">
<path fill-rule="evenodd" clip-rule="evenodd" d="M8.18542 0C7.01017 0 5.95562 0.721045 5.53047 1.81534L0.019043 16H4.20582L8.544 4.83497H8.54582C8.65467 4.56282 8.92102 4.37057 9.23232 4.37057C9.54365 4.37057 9.80997 4.56282 9.91885 4.83497H10.4968V2.5702H9.42392L10.4226 0H8.18542Z" fill="#DBDBDB"/>
<path fill-rule="evenodd" clip-rule="evenodd" d="M5.53047 1.81534C5.9384 0.765528 6.92582 0.0592397 8.04305 0.0035513L8.04165 0H8.18542H10.3505C11.5257 0 12.5802 0.721045 13.0054 1.81534L18.5168 16H14.2584L8.91392 2.24498C8.60795 1.57087 7.92832 1.10197 7.13905 1.10197C6.34785 1.10197 5.66682 1.57317 5.3619 2.24995L5.53047 1.81534Z" fill="white"/>
</svg>
