<svg width="17" height="18" viewBox="0 0 17 18" fill="none" xmlns="http://www.w3.org/2000/svg">
<path d="M11.8388 4.50289C11.8356 4.6949 11.9924 4.84853 12.1837 4.84534M11.8388 4.50289C11.8388 4.50247 11.8388 4.50204 11.8388 4.50162L11.9638 4.50417M11.8388 4.50289C11.8388 4.50332 11.8388 4.50374 11.8388 4.50417H11.9638M11.8388 4.50289C11.8395 4.30584 12.0063 4.15525 12.1973 4.16572M12.1837 4.84534L11.9638 4.50417M12.1837 4.84534L12.1837 4.84566C13.3891 4.86092 14.2135 5.23523 14.5796 5.86676M12.1837 4.84534C12.1837 4.84534 12.1837 4.84534 12.1837 4.84534C12.1869 4.84528 12.1901 4.84519 12.1933 4.84505L12.1885 4.73683L12.2098 4.84324L12.2123 4.84274L12.1975 4.72084C13.4152 4.73871 14.2906 5.11896 14.6878 5.80417M11.9638 4.50417C11.9638 4.37917 12.0703 4.28267 12.1928 4.29067M12.1973 4.16572C12.1964 4.1657 12.1954 4.16569 12.1944 4.16568L12.1928 4.29067M12.1973 4.16572C13.5768 4.18459 14.65 4.63537 15.1655 5.52763M12.1973 4.16572C12.1985 4.16578 12.1997 4.16586 12.2009 4.16593L12.1928 4.29067M12.1928 4.29067L15.1655 5.52763M15.1655 5.52763C15.1655 5.5276 15.1655 5.52756 15.1655 5.52753L15.0573 5.59017L15.1655 5.52763ZM15.1655 5.52763C15.8666 6.73841 15.3405 8.4265 13.9651 10.0511M15.1655 5.52763L13.8673 9.97317M13.9651 10.0511C13.966 10.0499 13.967 10.0486 13.9679 10.0474L13.8673 9.97317M13.9651 10.0511C13.9643 10.0521 13.9635 10.053 13.9627 10.054L13.8673 9.97317M13.9651 10.0511C13.8475 10.2061 13.6231 10.2281 13.476 10.1021M13.8673 9.97317C13.7943 10.0722 13.6513 10.0877 13.5573 10.0072M13.476 10.1021C13.4764 10.1025 13.4768 10.1028 13.4772 10.1032L13.5573 10.0072M13.476 10.1021C13.3279 9.97735 13.3172 9.75336 13.4484 9.61157M13.476 10.1021L13.5573 10.0072M13.5573 10.0072L13.4484 9.61157M13.4484 9.61157C13.4477 9.61234 13.4471 9.61311 13.4464 9.61387L13.5418 9.69467L13.4509 9.60881C13.4501 9.60973 13.4492 9.61065 13.4484 9.61157ZM13.4484 9.61157C14.0727 8.87403 14.4846 8.15374 14.6748 7.50823C14.865 6.86219 14.8308 6.30103 14.5796 5.86676M13.4484 9.61157L14.6878 5.80417M14.5796 5.86676C14.5796 5.86679 14.5796 5.86682 14.5796 5.86685L14.6878 5.80417M14.5796 5.86676L14.6878 5.80417M6.46124 12.8659L6.46123 12.8659C5.19965 12.1366 4.09063 11.2593 3.23457 10.3197C3.10342 10.1828 3.10964 9.96249 3.25178 9.83207L3.25218 9.8317C3.3917 9.70479 3.61265 9.71544 3.73784 9.86279C4.54293 10.7475 5.59433 11.5825 6.79969 12.2769L6.79979 12.2769C8.17792 13.0725 9.58983 13.5869 10.8389 13.8026C12.0303 14.0082 13.0581 13.9396 13.7683 13.6009C13.4949 12.9653 13.8459 12.2169 14.5334 12.0353L14.5335 12.0353C15.266 11.8425 15.9821 12.3941 15.9793 13.1511M6.46124 12.8659L15.8543 13.1507M6.46124 12.8659C7.94387 13.7227 9.47581 14.2762 10.8471 14.4934C12.1788 14.7043 13.3747 14.6004 14.2244 14.1309M6.46124 12.8659L14.2293 13.9842M15.9793 13.1511L15.8543 13.1507M15.9793 13.1511C15.9793 13.1511 15.9793 13.1511 15.9793 13.151L15.8543 13.1507M15.9793 13.1511C15.9765 14.0615 14.9795 14.5966 14.2244 14.1309M15.8543 13.1507C15.8518 13.9867 14.9088 14.4682 14.2293 13.9842M14.2244 14.1309C14.2474 14.1181 14.2702 14.1051 14.2927 14.0919L14.2293 13.9842M14.2244 14.1309C14.2016 14.1168 14.1791 14.1019 14.1568 14.086L14.2293 13.9842M3.27129 13.1505C3.2712 12.5329 2.78278 12.026 2.1686 12.0007C2.18397 11.2145 2.61632 10.2697 3.39142 9.31278C4.20481 8.30863 5.38326 7.30704 6.80532 6.4854C8.02454 5.78305 9.28885 5.28532 10.4669 5.0334L10.467 5.03376L10.4762 5.03104C10.8795 4.91187 10.7518 4.31022 10.3328 4.36783L10.3327 4.36749L10.3236 4.36945C9.07234 4.638 7.74223 5.16169 6.46689 5.89635L6.46675 5.89643C4.93162 6.78341 3.65299 7.876 2.7764 8.99287C1.92496 10.0777 1.44168 11.2002 1.49298 12.1865C0.781909 12.6428 0.790938 13.7076 1.53596 14.1439C2.30406 14.5963 3.27393 14.0421 3.27129 13.1505ZM3.27129 13.1505C3.27129 13.1506 3.27129 13.1506 3.27129 13.1507H3.14629L3.27129 13.1503C3.27129 13.1504 3.27129 13.1504 3.27129 13.1505ZM6.60746 4.69519L6.60749 4.6952L6.60799 4.6923C6.6402 4.50454 6.51118 4.3248 6.32295 4.29538C4.22178 3.9139 2.4918 4.30147 1.79054 5.51766C1.26636 6.42401 1.42834 7.6017 2.12981 8.82715C2.21894 8.9999 2.43198 9.05825 2.59793 8.9652L2.59794 8.96521L2.59984 8.9641C2.76647 8.86677 2.82048 8.65411 2.71966 8.49013C2.10464 7.41817 2.00916 6.49688 2.37951 5.85623L2.37958 5.8561C2.63062 5.42064 3.10085 5.10978 3.75736 4.95137C4.41333 4.79309 5.24549 4.79 6.19901 4.96312C6.3887 5.00607 6.57093 4.88173 6.60746 4.69519ZM11.0163 14.7732L11.0163 14.7732L11.0144 14.7721C10.8559 14.6784 10.6452 14.7258 10.5487 14.8891L10.6563 14.9527L10.5491 14.8883C9.93629 15.9087 9.20406 16.4267 8.48179 16.4267C7.97921 16.4267 7.47535 16.1751 7.01044 15.6862C6.54572 15.1974 6.12735 14.4785 5.80063 13.5659C5.74174 13.3856 5.54183 13.2874 5.36328 13.3533C5.18394 13.4186 5.09274 13.6188 5.16173 13.7961C5.87913 15.8032 7.07989 17.1062 8.48179 17.1062C9.5028 17.1062 10.4244 16.4103 11.1304 15.2382L11.1309 15.2373C11.2252 15.0777 11.1765 14.8718 11.0163 14.7732ZM7.33137 2.00271L7.3313 2.00271L7.33129 2.00688C7.32859 3.16874 8.82901 3.57627 9.43681 2.65156C10.0967 3.07892 10.6835 3.93025 11.1121 5.07185C11.562 6.26993 11.8308 7.77043 11.8308 9.38767C11.8308 10.7561 11.64 12.0655 11.2877 13.1945C11.2243 13.3746 11.3219 13.5745 11.5072 13.632C11.6937 13.69 11.8847 13.5785 11.9352 13.397C12.3115 12.1989 12.5108 10.8224 12.5108 9.38767C12.5108 7.64388 12.2138 6.01406 11.6998 4.70608C11.2005 3.43549 10.49 2.45271 9.6321 1.97754C9.55547 0.524535 7.3838 0.532927 7.33137 2.00271ZM8.29942 8.53848L8.29885 8.53861C7.83145 8.64176 7.5325 9.10094 7.63307 9.56988C7.73358 10.0385 8.19616 10.3368 8.6645 10.2364L8.66458 10.2364C8.94002 10.1771 9.13294 10.0262 9.24297 9.83121C9.35147 9.63891 9.37471 9.41231 9.32985 9.20465C9.28498 8.99699 9.17029 8.80019 8.99233 8.66969C8.81188 8.53736 8.57421 8.47917 8.29942 8.53848Z" fill="white" stroke="white" stroke-width="0.25"/>
</svg>
